
          <svg xmlns="http://www.w3.org/2000/svg" xmlns:cc="http://creativecommons.org/ns#" xmlns:rdf="http://www.w3.org/1999/02/22-rdf-syntax-ns#" version="1.1" width="288.734375" height="158.6407012939453">
            <defs>
              <style type="text/css">svg {
          background-color: #fff; }
        
        .root text,
        .root tspan {
          font: 12px Arial; }
        
        .root path {
          fill-opacity: 0;
          stroke-width: 2px;
          stroke: #000; }
        
        .root circle {
          fill: #6b6659;
          stroke-width: 2px;
          stroke: #000; }
        
        .anchor text, .any-character text {
          fill: #fff; }
        
        .anchor rect, .any-character rect {
          fill: #6b6659; }
        
        .escape text, .charset-escape text, .literal text {
          fill: #000; }
        
        .escape rect, .charset-escape rect {
          fill: #bada55; }
        
        .literal rect {
          fill: #dae9e5; }
        
        .charset .charset-box {
          fill: #cbcbba; }
        
        .subexp .subexp-label tspan,
        .charset .charset-label tspan,
        .match-fragment .repeat-label tspan {
          font-size: 10px; }
        
        .repeat-label {
          cursor: help; }
        
        .subexp .subexp-label tspan,
        .charset .charset-label tspan {
          dominant-baseline: text-after-edge; }
        
        .subexp .subexp-box {
          stroke: #908c83;
          stroke-dasharray: 6,2;
          stroke-width: 2px;
          fill-opacity: 0; }
        
        .quote {
          fill: #908c83; }
        </style>
            </defs>
            <metadata>
              <rdf:rdf>
                <cc:license rdf:about="http://creativecommons.org/licenses/by/3.0/">
                  <cc:permits rdf:resource="http://creativecommons.org/ns#Reproduction"></cc:permits>
                  <cc:permits rdf:resource="http://creativecommons.org/ns#Distribution"></cc:permits>
                  <cc:requires rdf:resource="http://creativecommons.org/ns#Notice"></cc:requires>
                  <cc:requires rdf:resource="http://creativecommons.org/ns#Attribution"></cc:requires>
                  <cc:permits rdf:resource="http://creativecommons.org/ns#DerivativeWorks"></cc:permits>
                </cc:license>
              </rdf:rdf>
            </metadata>
          <desc>Created with Snap</desc><g class="root" transform="matrix(1,0,0,1,15,21)"><text x="0" y="0">Flags: Global</text><g class="regexp match" transform="matrix(1,0,0,1,10,13.5313)"><path d="M35.671875,63.109399999999994H65.6719M173.062525,63.1094H203.0625"></path><g class="match-fragment literal" transform="matrix(1,0,0,1,0,51.3594)"><g class="label"><rect width="35.671875" height="23.5" rx="3" ry="3"></rect><text x="0" y="0" transform="matrix(1,0,0,1,5,16.75)"><tspan class="quote">“</tspan><tspan>&lt;%</tspan><tspan class="quote">”</tspan></text></g></g><g class="match-fragment subexp" transform="matrix(1,0,0,1,45.6719,0)"><rect rx="3" ry="3" class="subexp-box" transform="matrix(1,0,0,1,0,11.1094)" width="147.390625" height="103"></rect><text x="0" y="0" class="subexp-label" transform="matrix(1,0,0,1,0,11.1094)"><tspan>group #1</tspan></text><g class="regexp match match-fragment" transform="matrix(1,0,0,1,10,21.1094)"><path d="M10,42q-10,0 -10,10v21q0,10 10,10h107.390625q10,0 10,-10v-21q0,-10 -10,-10"></path><g class="charset" transform="matrix(1,0,0,1,10,0)"><rect rx="3" ry="3" class="charset-box" transform="matrix(1,0,0,1,0,11)" width="107.390625" height="62"></rect><text x="0" y="0" class="charset-label" transform="matrix(1,0,0,1,0,11)"><tspan>One of:</tspan></text><g transform="matrix(1,0,0,1,5,16)"><g class="charset-escape" transform="matrix(1,0,0,1,12.0078,0)"><g class="label"><rect width="73.375" height="23.5" rx="3" ry="3"></rect><text x="0" y="0" transform="matrix(1,0,0,1,5,16.75)"><tspan>white space</tspan></text></g></g><g class="charset-escape" transform="matrix(1,0,0,1,0,28.5)"><g class="label"><rect width="97.390625" height="23.5" rx="3" ry="3"></rect><text x="0" y="0" transform="matrix(1,0,0,1,5,16.75)"><tspan>non-white space</tspan></text></g></g></g></g></g></g><g class="match-fragment literal" transform="matrix(1,0,0,1,203.0625,51.3594)"><g class="label"><rect width="35.671875" height="23.5" rx="3" ry="3"></rect><text x="0" y="0" transform="matrix(1,0,0,1,5,16.75)"><tspan class="quote">“</tspan><tspan>%&gt;</tspan><tspan class="quote">”</tspan></text></g></g></g><path d="M10,76.6407H0M248.734375,76.6407H258.734375"></path><circle cx="0" cy="76.6407" r="5"></circle><circle cx="258.734375" cy="76.6407" r="5"></circle></g></svg>
        