
          <svg xmlns="http://www.w3.org/2000/svg" xmlns:cc="http://creativecommons.org/ns#" xmlns:rdf="http://www.w3.org/1999/02/22-rdf-syntax-ns#" version="1.1" width="689.4375" height="264.8905944824219">
            <defs>
              <style type="text/css">svg {
          background-color: #fff; }
        
        .root text,
        .root tspan {
          font: 12px Arial; }
        
        .root path {
          fill-opacity: 0;
          stroke-width: 2px;
          stroke: #000; }
        
        .root circle {
          fill: #6b6659;
          stroke-width: 2px;
          stroke: #000; }
        
        .anchor text, .any-character text {
          fill: #fff; }
        
        .anchor rect, .any-character rect {
          fill: #6b6659; }
        
        .escape text, .charset-escape text, .literal text {
          fill: #000; }
        
        .escape rect, .charset-escape rect {
          fill: #bada55; }
        
        .literal rect {
          fill: #dae9e5; }
        
        .charset .charset-box {
          fill: #cbcbba; }
        
        .subexp .subexp-label tspan,
        .charset .charset-label tspan,
        .match-fragment .repeat-label tspan {
          font-size: 10px; }
        
        .repeat-label {
          cursor: help; }
        
        .subexp .subexp-label tspan,
        .charset .charset-label tspan {
          dominant-baseline: text-after-edge; }
        
        .subexp .subexp-box {
          stroke: #908c83;
          stroke-dasharray: 6,2;
          stroke-width: 2px;
          fill-opacity: 0; }
        
        .quote {
          fill: #908c83; }
        </style>
            </defs>
            <metadata>
              <rdf:rdf>
                <cc:license rdf:about="http://creativecommons.org/licenses/by/3.0/">
                  <cc:permits rdf:resource="http://creativecommons.org/ns#Reproduction"></cc:permits>
                  <cc:permits rdf:resource="http://creativecommons.org/ns#Distribution"></cc:permits>
                  <cc:requires rdf:resource="http://creativecommons.org/ns#Notice"></cc:requires>
                  <cc:requires rdf:resource="http://creativecommons.org/ns#Attribution"></cc:requires>
                  <cc:permits rdf:resource="http://creativecommons.org/ns#DerivativeWorks"></cc:permits>
                </cc:license>
              </rdf:rdf>
            </metadata>
          <desc>Created with Snap</desc><g class="root" transform="matrix(1,0,0,1,15,9.8906)"><g class="regexp match" transform="matrix(1,0,0,1,10,0)"><path d="M21.328125,122.5547H31.3281M608.10935,122.55469703674316H618.1094"></path><g class="match-fragment literal" transform="matrix(1,0,0,1,0,110.5547)"><g class="label"><rect width="21.328125" height="24" rx="3" ry="3"></rect><text x="0" y="0" transform="matrix(1,0,0,1,5,17)"><tspan class="quote">“</tspan><tspan>[</tspan><tspan class="quote">”</tspan></text></g></g><g class="match-fragment subexp regexp" transform="matrix(1,0,0,1,31.3281,0)"><path d="M10,73.6094q0,-10 10,-10M566.78125,73.6094q0,-10 -10,-10M10,173.16410000000002q0,10 10,10M566.78125,173.16410000000002q0,10 -10,10M0,122.55469703674316q10,0 10,-10V73.6094M576.78125,122.55469703674316q-10,0 -10,-10V73.6094M0,122.55469703674316q10,0 10,10V173.16410000000002M576.78125,122.55469703674316q-10,0 -10,10V173.16410000000002"></path><g transform="matrix(1,0,0,1,20,0)" class="regexp-matches"><path d="M0,63.6094h210.5781M311.2031,63.6094H536.78125M0,183.16410000000002h10M536.781225,183.16410000000002H536.78125"></path><g class="match match-fragment subexp" transform="matrix(1,0,0,1,200.5781,0)"><rect rx="3" ry="3" class="subexp-box" transform="matrix(1,0,0,1,0,11.1094)" width="135.625" height="94"></rect><text x="0" y="0" class="subexp-label" transform="matrix(1,0,0,1,0,11.1094)"><tspan>group #1</tspan></text><g class="regexp match" transform="matrix(1,0,0,1,10,21.1094)"><path d="M37.8125,42.5H62.8125"></path><g class="match-fragment charset" transform="matrix(1,0,0,1,0,0)"><rect rx="3" ry="3" class="charset-box" transform="matrix(1,0,0,1,0,11)" width="37.8125" height="63"></rect><text x="0" y="0" class="charset-label" transform="matrix(1,0,0,1,0,11)"><tspan>None of:</tspan></text><g transform="matrix(1,0,0,1,7.7734,16)"><g class="literal" transform="matrix(1,0,0,1,0,0)"><g class="label"><rect width="22.265625" height="24" rx="3" ry="3"></rect><text x="0" y="0" transform="matrix(1,0,0,1,5,17)"><tspan class="quote">“</tspan><tspan>"</tspan><tspan class="quote">”</tspan></text></g></g><g class="literal" transform="matrix(1,0,0,1,0.9844,29)"><g class="label"><rect width="20.296875" height="24" rx="3" ry="3"></rect><text x="0" y="0" transform="matrix(1,0,0,1,5,17)"><tspan class="quote">“</tspan><tspan>'</tspan><tspan class="quote">”</tspan></text></g></g></g></g><g class="match-fragment" transform="matrix(1,0,0,1,47.8125,4.5)"><path d="M0,38q10,0 10,-10v-18q0,-10 10,-10h27.8125q10,0 10,10v18q0,10 10,10M15,38q-10,0 -10,10v7q0,10 10,10h37.8125q10,0 10,-10v-7q0,-10 -10,-10M62.8125,53l5,-5m-5,5l-5,-5"></path><g class="charset" transform="matrix(1,0,0,1,15,10)"><rect rx="3" ry="3" class="charset-box" transform="matrix(1,0,0,1,0,11)" width="37.8125" height="34"></rect><text x="0" y="0" class="charset-label" transform="matrix(1,0,0,1,0,11)"><tspan>None of:</tspan></text><g transform="matrix(1,0,0,1,8.2422,16)"><g class="literal" transform="matrix(1,0,0,1,0,0)"><g class="label"><rect width="21.328125" height="24" rx="3" ry="3"></rect><text x="0" y="0" transform="matrix(1,0,0,1,5,17)"><tspan class="quote">“</tspan><tspan>[</tspan><tspan class="quote">”</tspan></text></g></g></g></g></g></g></g><g class="match" transform="matrix(1,0,0,1,0,110)"><path d="M42.8125,73.1641H87.8125M348.7030944824219,73.16410085144042H383.7031"></path><g class="match-fragment subexp" transform="matrix(1,0,0,1,0,9.5547)"><rect rx="3" ry="3" class="subexp-box" transform="matrix(1,0,0,1,0,11.1094)" width="52.8125" height="94"></rect><text x="0" y="0" class="subexp-label" transform="matrix(1,0,0,1,0,11.1094)"><tspan>group #2</tspan></text><g class="regexp match match-fragment charset" transform="matrix(1,0,0,1,10,21.1094)"><rect rx="3" ry="3" class="charset-box" transform="matrix(1,0,0,1,0,11)" width="32.8125" height="63"></rect><text x="0" y="0" class="charset-label" transform="matrix(1,0,0,1,0,11)"><tspan>One of:</tspan></text><g transform="matrix(1,0,0,1,5.2734,16)"><g class="literal" transform="matrix(1,0,0,1,0,0)"><g class="label"><rect width="22.265625" height="24" rx="3" ry="3"></rect><text x="0" y="0" transform="matrix(1,0,0,1,5,17)"><tspan class="quote">“</tspan><tspan>"</tspan><tspan class="quote">”</tspan></text></g></g><g class="literal" transform="matrix(1,0,0,1,0.9844,29)"><g class="label"><rect width="20.296875" height="24" rx="3" ry="3"></rect><text x="0" y="0" transform="matrix(1,0,0,1,5,17)"><tspan class="quote">“</tspan><tspan>'</tspan><tspan class="quote">”</tspan></text></g></g></g></g></g><g class="match-fragment subexp" transform="matrix(1,0,0,1,62.8125,0)"><rect rx="3" ry="3" class="subexp-box" transform="matrix(1,0,0,1,0,11.1094)" width="310.8905944824219" height="123.89059448242188"></rect><text x="0" y="0" class="subexp-label" transform="matrix(1,0,0,1,0,11.1094)"><tspan>group #3</tspan></text><g class="regexp match match-fragment" transform="matrix(1,0,0,1,10,21.1094)"><path d="M0,52.05470085144043q10,0 10,-10v-31.945301055908203q0,-10 10,-10h250.89059448242188q10,0 10,10v31.945301055908203q0,10 10,10M10,37.05470085144043l5,5m-5,-5l-5,5M15,52.05470085144043q-10,0 -10,10v31.945301055908203q0,10 10,10h260.8905944824219q10,0 10,-10v-31.945301055908203q0,-10 -10,-10"></path><g class="subexp regexp" transform="matrix(1,0,0,1,15,10)"><path d="M0,42.05470085144043c10,0 10,-8.945300851440429 20,-8.945300851440429M260.8905944824219,42.05470085144043c-10,0 -10,-8.945300851440429 -20,-8.945300851440429M10,62q0,10 10,10M250.89059448242188,62q0,10 -10,10M0,42.05470085144043q10,0 10,10V62M260.8905944824219,42.05470085144043q-10,0 -10,10V62"></path><g transform="matrix(1,0,0,1,20,0)" class="regexp-matches"><path d="M0,33.1094h10M220.8906,33.1094H220.89059448242188M0,72h53.3437M167.54680000000002,72H220.89059448242188"></path><g class="match" transform="matrix(1,0,0,1,0,0)"><path d="M163.078125,33.1094H183.0781"></path><g class="match-fragment subexp" transform="matrix(1,0,0,1,0,0)"><rect rx="3" ry="3" class="subexp-box" transform="matrix(1,0,0,1,0,11.1094)" width="173.078125" height="44"></rect><text x="0" y="0" class="subexp-label" transform="matrix(1,0,0,1,0,11.1094)"><tspan>negative lookahead</tspan></text><g class="regexp match match-fragment escape" transform="matrix(1,0,0,1,10,21.1094)"><g class="label"><rect width="153.078125" height="24" rx="3" ry="3"></rect><text x="0" y="0" transform="matrix(1,0,0,1,5,17)"><tspan>Back reference (group = 2)</tspan></text></g></g></g><g class="match-fragment charset" transform="matrix(1,0,0,1,183.0781,5.1094)"><rect rx="3" ry="3" class="charset-box" transform="matrix(1,0,0,1,0,11)" width="37.8125" height="34"></rect><text x="0" y="0" class="charset-label" transform="matrix(1,0,0,1,0,11)"><tspan>None of:</tspan></text><g transform="matrix(1,0,0,1,8.2422,16)"><g class="literal" transform="matrix(1,0,0,1,0,0)"><g class="label"><rect width="21.328125" height="24" rx="3" ry="3"></rect><text x="0" y="0" transform="matrix(1,0,0,1,5,17)"><tspan class="quote">“</tspan><tspan>\</tspan><tspan class="quote">”</tspan></text></g></g></g></g></g><g class="match" transform="matrix(1,0,0,1,53.3437,60)"><path d="M21.328125,12H31.3281"></path><g class="match-fragment literal" transform="matrix(1,0,0,1,0,0)"><g class="label"><rect width="21.328125" height="24" rx="3" ry="3"></rect><text x="0" y="0" transform="matrix(1,0,0,1,5,17)"><tspan class="quote">“</tspan><tspan>\</tspan><tspan class="quote">”</tspan></text></g></g><g class="match-fragment any-character" transform="matrix(1,0,0,1,31.3281,0)"><g class="label"><rect width="82.875" height="24"></rect><text x="0" y="0" transform="matrix(1,0,0,1,5,17)"><tspan>any character</tspan></text></g></g></g></g></g></g></g><g class="match-fragment escape" transform="matrix(1,0,0,1,383.7031,61.1641)"><g class="label"><rect width="153.078125" height="24" rx="3" ry="3"></rect><text x="0" y="0" transform="matrix(1,0,0,1,5,17)"><tspan>Back reference (group = 2)</tspan></text></g></g></g></g></g><g class="match-fragment literal" transform="matrix(1,0,0,1,618.1094,110.5547)"><g class="label"><rect width="21.328125" height="24" rx="3" ry="3"></rect><text x="0" y="0" transform="matrix(1,0,0,1,5,17)"><tspan class="quote">“</tspan><tspan>]</tspan><tspan class="quote">”</tspan></text></g></g></g><path d="M10,122.5547H0M649.437525,122.5547H659.4375"></path><circle cx="0" cy="122.5547" r="5"></circle><circle cx="659.4375" cy="122.5547" r="5"></circle></g></svg>
        