
          <svg xmlns="http://www.w3.org/2000/svg" xmlns:cc="http://creativecommons.org/ns#" xmlns:rdf="http://www.w3.org/1999/02/22-rdf-syntax-ns#" version="1.1" width="269.0780944824219" height="116.53129577636719">
            <defs>
              <style type="text/css">svg {
          background-color: #fff; }
        
        .root text,
        .root tspan {
          font: 12px Arial; }
        
        .root path {
          fill-opacity: 0;
          stroke-width: 2px;
          stroke: #000; }
        
        .root circle {
          fill: #6b6659;
          stroke-width: 2px;
          stroke: #000; }
        
        .anchor text, .any-character text {
          fill: #fff; }
        
        .anchor rect, .any-character rect {
          fill: #6b6659; }
        
        .escape text, .charset-escape text, .literal text {
          fill: #000; }
        
        .escape rect, .charset-escape rect {
          fill: #bada55; }
        
        .literal rect {
          fill: #dae9e5; }
        
        .charset .charset-box {
          fill: #cbcbba; }
        
        .subexp .subexp-label tspan,
        .charset .charset-label tspan,
        .match-fragment .repeat-label tspan {
          font-size: 10px; }
        
        .repeat-label {
          cursor: help; }
        
        .subexp .subexp-label tspan,
        .charset .charset-label tspan {
          dominant-baseline: text-after-edge; }
        
        .subexp .subexp-box {
          stroke: #908c83;
          stroke-dasharray: 6,2;
          stroke-width: 2px;
          fill-opacity: 0; }
        
        .quote {
          fill: #908c83; }
        </style>
            </defs>
            <metadata>
              <rdf:rdf>
                <cc:license rdf:about="http://creativecommons.org/licenses/by/3.0/">
                  <cc:permits rdf:resource="http://creativecommons.org/ns#Reproduction"></cc:permits>
                  <cc:permits rdf:resource="http://creativecommons.org/ns#Distribution"></cc:permits>
                  <cc:requires rdf:resource="http://creativecommons.org/ns#Notice"></cc:requires>
                  <cc:requires rdf:resource="http://creativecommons.org/ns#Attribution"></cc:requires>
                  <cc:permits rdf:resource="http://creativecommons.org/ns#DerivativeWorks"></cc:permits>
                </cc:license>
              </rdf:rdf>
            </metadata>
          <desc>Created with Snap</desc><g class="root" transform="matrix(1,0,0,1,15,21)"><text x="0" y="0">Flags: Global</text><g class="regexp" transform="matrix(1,0,0,1,10,13.5313)"><path d="M10,21.75q0,-10 10,-10M209.07809448242188,21.75q0,-10 -10,-10M0,36c10,0 10,14.25 20,14.25M219.07809448242188,36c-10,0 -10,14.25 -20,14.25M0,36q10,0 10,-10V21.75M219.07809448242188,36q-10,0 -10,-10V21.75"></path><g transform="matrix(1,0,0,1,20,0)" class="regexp-matches"><path d="M0,11.75h0M164.0781,11.75H179.07809448242188M0,50.25h11.9922M177.08595,50.25H179.07809448242188"></path><g class="match" transform="matrix(1,0,0,1,0,0)"><path d="M70.703125,11.75H90.7031"></path><g class="match-fragment" transform="matrix(1,0,0,1,0,0)"><g class="label anchor"><rect width="70.703125" height="23.5"></rect><text x="0" y="0" transform="matrix(1,0,0,1,5,16.75)"><tspan>Start of line</tspan></text></g></g><g class="match-fragment" transform="matrix(1,0,0,1,80.7031,0)"><path d="M10,11.75q-10,0 -10,10v1.75q0,10 10,10h73.375q10,0 10,-10v-1.75q0,-10 -10,-10M93.375,26.75l5,-5m-5,5l-5,-5"></path><g class="escape" transform="matrix(1,0,0,1,10,0)"><g class="label"><rect width="73.375" height="23.5" rx="3" ry="3"></rect><text x="0" y="0" transform="matrix(1,0,0,1,5,16.75)"><tspan>white space</tspan></text></g></g></g></g><g class="match" transform="matrix(1,0,0,1,1.9922,38.5)"><path d="M83.375,11.75H108.375"></path><g class="match-fragment" transform="matrix(1,0,0,1,0,0)"><path d="M10,11.75q-10,0 -10,10v1.75q0,10 10,10h73.375q10,0 10,-10v-1.75q0,-10 -10,-10M93.375,26.75l5,-5m-5,5l-5,-5"></path><g class="escape" transform="matrix(1,0,0,1,10,0)"><g class="label"><rect width="73.375" height="23.5" rx="3" ry="3"></rect><text x="0" y="0" transform="matrix(1,0,0,1,5,16.75)"><tspan>white space</tspan></text></g></g></g><g class="match-fragment" transform="matrix(1,0,0,1,108.375,0)"><g class="label anchor"><rect width="66.71875" height="23.5"></rect><text x="0" y="0" transform="matrix(1,0,0,1,5,16.75)"><tspan>End of line</tspan></text></g></g></g></g></g><path d="M10,49.5313H0M229.07809448242188,49.5313H239.07809448242188"></path><circle cx="0" cy="49.5313" r="5"></circle><circle cx="239.07809448242188" cy="49.5313" r="5"></circle></g></svg>
        