
          <svg xmlns="http://www.w3.org/2000/svg" xmlns:cc="http://creativecommons.org/ns#"
                xmlns:rdf="http://www.w3.org/1999/02/22-rdf-syntax-ns#" version="1.1" width="112.8125" height="133">
            <defs>
              <style type="text/css">svg {
          background-color: #fff; }

        .root text,
        .root tspan {
          font: 12px Arial; }

        .root path {
          fill-opacity: 0;
          stroke-width: 2px;
          stroke: #000; }

        .root circle {
          fill: #6b6659;
          stroke-width: 2px;
          stroke: #000; }

        .anchor text, .any-character text {
          fill: #fff; }

        .anchor rect, .any-character rect {
          fill: #6b6659; }

        .escape text, .charset-escape text, .literal text {
          fill: #000; }

        .escape rect, .charset-escape rect {
          fill: #bada55; }

        .literal rect {
          fill: #dae9e5; }

        .charset .charset-box {
          fill: #cbcbba; }

        .subexp .subexp-label tspan,
        .charset .charset-label tspan,
        .match-fragment .repeat-label tspan {
          font-size: 10px; }

        .repeat-label {
          cursor: help; }

        .subexp .subexp-label tspan,
        .charset .charset-label tspan {
          dominant-baseline: text-after-edge; }

        .subexp .subexp-box {
          stroke: #908c83;
          stroke-dasharray: 6,2;
          stroke-width: 2px;
          fill-opacity: 0; }

        .quote {
          fill: #908c83; }
        </style>
            </defs>
            <metadata>
              <rdf:rdf>
                <cc:license rdf:about="http://creativecommons.org/licenses/by/3.0/">
                  <cc:permits rdf:resource="http://creativecommons.org/ns#Reproduction"></cc:permits>
                  <cc:permits rdf:resource="http://creativecommons.org/ns#Distribution"></cc:permits>
                  <cc:requires rdf:resource="http://creativecommons.org/ns#Notice"></cc:requires>
                  <cc:requires rdf:resource="http://creativecommons.org/ns#Attribution"></cc:requires>
                  <cc:permits rdf:resource="http://creativecommons.org/ns#DerivativeWorks"></cc:permits>
                </cc:license>
              </rdf:rdf>
            </metadata>
          <desc>Created with Snap</desc><g class="root" transform="matrix(1,0,0,1,15,10)"><g class="regexp match match-fragment" transform="matrix(1,0,0,1,10,0)"><path d="M10,57q-10,0 -10,10v36q0,10 10,10h37.8125q10,0 10,-10v-36q0,-10 -10,-10M57.8125,72l5,-5m-5,5l-5,-5"></path><g class="charset" transform="matrix(1,0,0,1,10,0)"><rect rx="3" ry="3" class="charset-box" transform="matrix(1,0,0,1,0,11)" width="37.8125" height="92"></rect><text x="0" y="0" class="charset-label" transform="matrix(1,0,0,1,0,11)"><tspan>None of:</tspan></text><g transform="matrix(1,0,0,1,8.2422,16)"><g class="literal" transform="matrix(1,0,0,1,0,0)"><g class="label"><rect width="21.328125" height="24" rx="3" ry="3"></rect><text x="0" y="0" transform="matrix(1,0,0,1,5,17)"><tspan class="quote">“</tspan><tspan>.</tspan><tspan class="quote">”</tspan></text></g></g><g class="literal" transform="matrix(1,0,0,1,0,29)"><g class="label"><rect width="21.328125" height="24" rx="3" ry="3"></rect><text x="0" y="0" transform="matrix(1,0,0,1,5,17)"><tspan class="quote">“</tspan><tspan>[</tspan><tspan class="quote">”</tspan></text></g></g><g class="literal" transform="matrix(1,0,0,1,0,58)"><g class="label"><rect width="21.328125" height="24" rx="3" ry="3"></rect><text x="0" y="0" transform="matrix(1,0,0,1,5,17)"><tspan class="quote">“</tspan><tspan>]</tspan><tspan class="quote">”</tspan></text></g></g></g></g></g><path d="M20,57H0M57.8125,57H82.8125"></path><circle cx="0" cy="57" r="5"></circle><circle cx="82.8125" cy="57" r="5"></circle></g></svg>
