
          <svg xmlns="http://www.w3.org/2000/svg" xmlns:cc="http://creativecommons.org/ns#" xmlns:rdf="http://www.w3.org/1999/02/22-rdf-syntax-ns#" version="1.1" width="534.7969360351562" height="186">
            <defs>
              <style type="text/css">svg {
          background-color: #fff; }
        
        .root text,
        .root tspan {
          font: 12px Arial; }
        
        .root path {
          fill-opacity: 0;
          stroke-width: 2px;
          stroke: #000; }
        
        .root circle {
          fill: #6b6659;
          stroke-width: 2px;
          stroke: #000; }
        
        .anchor text, .any-character text {
          fill: #fff; }
        
        .anchor rect, .any-character rect {
          fill: #6b6659; }
        
        .escape text, .charset-escape text, .literal text {
          fill: #000; }
        
        .escape rect, .charset-escape rect {
          fill: #bada55; }
        
        .literal rect {
          fill: #dae9e5; }
        
        .charset .charset-box {
          fill: #cbcbba; }
        
        .subexp .subexp-label tspan,
        .charset .charset-label tspan,
        .match-fragment .repeat-label tspan {
          font-size: 10px; }
        
        .repeat-label {
          cursor: help; }
        
        .subexp .subexp-label tspan,
        .charset .charset-label tspan {
          dominant-baseline: text-after-edge; }
        
        .subexp .subexp-box {
          stroke: #908c83;
          stroke-dasharray: 6,2;
          stroke-width: 2px;
          fill-opacity: 0; }
        
        .quote {
          fill: #908c83; }
        </style>
            </defs>
            <metadata>
              <rdf:rdf>
                <cc:license rdf:about="http://creativecommons.org/licenses/by/3.0/">
                  <cc:permits rdf:resource="http://creativecommons.org/ns#Reproduction"></cc:permits>
                  <cc:permits rdf:resource="http://creativecommons.org/ns#Distribution"></cc:permits>
                  <cc:requires rdf:resource="http://creativecommons.org/ns#Notice"></cc:requires>
                  <cc:requires rdf:resource="http://creativecommons.org/ns#Attribution"></cc:requires>
                  <cc:permits rdf:resource="http://creativecommons.org/ns#DerivativeWorks"></cc:permits>
                </cc:license>
              </rdf:rdf>
            </metadata>
          <desc>Created with Snap</desc><g class="root" transform="matrix(1,0,0,1,15,10)"><g class="regexp match" transform="matrix(1,0,0,1,10,0)"><path d="M70.703125,83H80.7031M137.3906,83.000025H147.3906M348.07816103515626,83H358.0782M408.0782,83.000025H418.0782"></path><g class="match-fragment" transform="matrix(1,0,0,1,0,71.25)"><g class="label anchor"><rect width="70.703125" height="23.5"></rect><text x="0" y="0" transform="matrix(1,0,0,1,5,16.75)"><tspan>Start of line</tspan></text></g></g><g class="match-fragment literal" transform="matrix(1,0,0,1,80.7031,71.2344)"><g class="label"><rect width="56.6875" height="23.53125" rx="3" ry="3"></rect><text x="0" y="0" transform="matrix(1,0,0,1,5,16.7656)"><tspan class="quote">“</tspan><tspan>[object </tspan><tspan class="quote">”</tspan></text></g></g><g class="match-fragment subexp regexp" transform="matrix(1,0,0,1,147.3906,0)"><path d="M10,36q0,-10 10,-10M190.68756103515625,36q0,-10 -10,-10M0,83c10,0 10,14.25 20,14.25M200.68756103515625,83c-10,0 -10,14.25 -20,14.25M10,144.25q0,10 10,10M190.68756103515625,144.25q0,10 -10,10M0,83q10,0 10,-10V36M200.68756103515625,83q-10,0 -10,-10V36M0,83q10,0 10,10V144.25M200.68756103515625,83q-10,0 -10,10V144.25"></path><g transform="matrix(1,0,0,1,20,0)" class="regexp-matches"><path d="M0,26h17.336M143.35165,26H160.68756103515625M0,97.25h0M160.68755,97.25H160.68756103515625M0,154.25h33.3282M127.35945000000001,154.25H160.68756103515625"></path><g class="match" transform="matrix(1,0,0,1,17.336,0)"><path d="M44.671875,26H54.6719"></path><g class="match-fragment literal" transform="matrix(1,0,0,1,0,14.25)"><g class="label"><rect width="44.671875" height="23.5" rx="3" ry="3"></rect><text x="0" y="0" transform="matrix(1,0,0,1,5,16.75)"><tspan class="quote">“</tspan><tspan>Float</tspan><tspan class="quote">”</tspan></text></g></g><g class="match-fragment subexp regexp" transform="matrix(1,0,0,1,54.6719,0)"><path d="M0,26c10,0 10,-14.25 20,-14.25M71.34375,26c-10,0 -10,-14.25 -20,-14.25M0,26c10,0 10,14.25 20,14.25M71.34375,26c-10,0 -10,14.25 -20,14.25"></path><g transform="matrix(1,0,0,1,20,0)" class="regexp-matches"><path d="M0,11.75h0M31.34375,11.75H31.34375M0,40.25h0M31.34375,40.25H31.34375"></path><g class="match match-fragment literal" transform="matrix(1,0,0,1,0,0)"><g class="label"><rect width="31.34375" height="23.5" rx="3" ry="3"></rect><text x="0" y="0" transform="matrix(1,0,0,1,5,16.75)"><tspan class="quote">“</tspan><tspan>32</tspan><tspan class="quote">”</tspan></text></g></g><g class="match match-fragment literal" transform="matrix(1,0,0,1,0,28.5)"><g class="label"><rect width="31.34375" height="23.5" rx="3" ry="3"></rect><text x="0" y="0" transform="matrix(1,0,0,1,5,16.75)"><tspan class="quote">“</tspan><tspan>64</tspan><tspan class="quote">”</tspan></text></g></g></g></g></g><g class="match" transform="matrix(1,0,0,1,0,57)"><path d="M79.34375,40.25H89.3438"></path><g class="match-fragment subexp regexp" transform="matrix(1,0,0,1,0,14.25)"><path d="M0,26c10,0 10,-14.25 20,-14.25M79.34375,26c-10,0 -10,-14.25 -20,-14.25M0,26c10,0 10,14.25 20,14.25M79.34375,26c-10,0 -10,14.25 -20,14.25"></path><g transform="matrix(1,0,0,1,20,0)" class="regexp-matches"><path d="M0,11.75h4M35.34375,11.75H39.34375M0,40.25h0M39.34375,40.25H39.34375"></path><g class="match match-fragment literal" transform="matrix(1,0,0,1,4,0)"><g class="label"><rect width="31.34375" height="23.5" rx="3" ry="3"></rect><text x="0" y="0" transform="matrix(1,0,0,1,5,16.75)"><tspan class="quote">“</tspan><tspan>Int</tspan><tspan class="quote">”</tspan></text></g></g><g class="match match-fragment literal" transform="matrix(1,0,0,1,0,28.5)"><g class="label"><rect width="39.34375" height="23.5" rx="3" ry="3"></rect><text x="0" y="0" transform="matrix(1,0,0,1,5,16.75)"><tspan class="quote">“</tspan><tspan>Uint</tspan><tspan class="quote">”</tspan></text></g></g></g></g><g class="match-fragment subexp regexp" transform="matrix(1,0,0,1,89.3438,0)"><path d="M10,21.75q0,-10 10,-10M61.34375,21.75q0,-10 -10,-10M0,40.25c10,0 10,0 20,0M71.34375,40.25c-10,0 -10,0 -20,0M10,58.75q0,10 10,10M61.34375,58.75q0,10 -10,10M0,40.25q10,0 10,-10V21.75M71.34375,40.25q-10,0 -10,-10V21.75M0,40.25q10,0 10,10V58.75M71.34375,40.25q-10,0 -10,10V58.75"></path><g transform="matrix(1,0,0,1,20,0)" class="regexp-matches"><path d="M0,11.75h3.3359M28.007775,11.75H31.34375M0,40.25h0M31.34375,40.25H31.34375M0,68.75h0M31.34375,68.75H31.34375"></path><g class="match match-fragment literal" transform="matrix(1,0,0,1,3.3359,0)"><g class="label"><rect width="24.671875" height="23.5" rx="3" ry="3"></rect><text x="0" y="0" transform="matrix(1,0,0,1,5,16.75)"><tspan class="quote">“</tspan><tspan>8</tspan><tspan class="quote">”</tspan></text></g></g><g class="match match-fragment literal" transform="matrix(1,0,0,1,0,28.5)"><g class="label"><rect width="31.34375" height="23.5" rx="3" ry="3"></rect><text x="0" y="0" transform="matrix(1,0,0,1,5,16.75)"><tspan class="quote">“</tspan><tspan>16</tspan><tspan class="quote">”</tspan></text></g></g><g class="match match-fragment literal" transform="matrix(1,0,0,1,0,57)"><g class="label"><rect width="31.34375" height="23.5" rx="3" ry="3"></rect><text x="0" y="0" transform="matrix(1,0,0,1,5,16.75)"><tspan class="quote">“</tspan><tspan>32</tspan><tspan class="quote">”</tspan></text></g></g></g></g></g><g class="match match-fragment literal" transform="matrix(1,0,0,1,33.3282,142.5)"><g class="label"><rect width="94.03125" height="23.5" rx="3" ry="3"></rect><text x="0" y="0" transform="matrix(1,0,0,1,5,16.75)"><tspan class="quote">“</tspan><tspan>Uint8Clamped</tspan><tspan class="quote">”</tspan></text></g></g></g></g><g class="match-fragment literal" transform="matrix(1,0,0,1,358.0782,71.2344)"><g class="label"><rect width="50" height="23.53125" rx="3" ry="3"></rect><text x="0" y="0" transform="matrix(1,0,0,1,5,16.7656)"><tspan class="quote">“</tspan><tspan>Array]</tspan><tspan class="quote">”</tspan></text></g></g><g class="match-fragment" transform="matrix(1,0,0,1,418.0782,71.25)"><g class="label anchor"><rect width="66.71875" height="23.5"></rect><text x="0" y="0" transform="matrix(1,0,0,1,5,16.75)"><tspan>End of line</tspan></text></g></g></g><path d="M10,83H0M494.79695,83H504.79693603515625"></path><circle cx="0" cy="83" r="5"></circle><circle cx="504.79693603515625" cy="83" r="5"></circle></g></svg>
        