
          <svg xmlns="http://www.w3.org/2000/svg" xmlns:cc="http://creativecommons.org/ns#" xmlns:rdf="http://www.w3.org/1999/02/22-rdf-syntax-ns#" version="1.1" width="392.7813415527344" height="99">
            <defs>
              <style type="text/css">svg {
          background-color: #fff; }
        
        .root text,
        .root tspan {
          font: 12px Arial; }
        
        .root path {
          fill-opacity: 0;
          stroke-width: 2px;
          stroke: #000; }
        
        .root circle {
          fill: #6b6659;
          stroke-width: 2px;
          stroke: #000; }
        
        .anchor text, .any-character text {
          fill: #fff; }
        
        .anchor rect, .any-character rect {
          fill: #6b6659; }
        
        .escape text, .charset-escape text, .literal text {
          fill: #000; }
        
        .escape rect, .charset-escape rect {
          fill: #bada55; }
        
        .literal rect {
          fill: #dae9e5; }
        
        .charset .charset-box {
          fill: #cbcbba; }
        
        .subexp .subexp-label tspan,
        .charset .charset-label tspan,
        .match-fragment .repeat-label tspan {
          font-size: 10px; }
        
        .repeat-label {
          cursor: help; }
        
        .subexp .subexp-label tspan,
        .charset .charset-label tspan {
          dominant-baseline: text-after-edge; }
        
        .subexp .subexp-box {
          stroke: #908c83;
          stroke-dasharray: 6,2;
          stroke-width: 2px;
          fill-opacity: 0; }
        
        .quote {
          fill: #908c83; }
        </style>
            </defs>
            <metadata>
              <rdf:rdf>
                <cc:license rdf:about="http://creativecommons.org/licenses/by/3.0/">
                  <cc:permits rdf:resource="http://creativecommons.org/ns#Reproduction"></cc:permits>
                  <cc:permits rdf:resource="http://creativecommons.org/ns#Distribution"></cc:permits>
                  <cc:requires rdf:resource="http://creativecommons.org/ns#Notice"></cc:requires>
                  <cc:requires rdf:resource="http://creativecommons.org/ns#Attribution"></cc:requires>
                  <cc:permits rdf:resource="http://creativecommons.org/ns#DerivativeWorks"></cc:permits>
                </cc:license>
              </rdf:rdf>
            </metadata>
          <desc>Created with Snap</desc><g class="root" transform="matrix(1,0,0,1,15,10)"><g class="regexp match" transform="matrix(1,0,0,1,10,0)"><path d="M70.703125,39.5H80.7031M266.06253603515626,39.5H276.0626"></path><g class="match-fragment" transform="matrix(1,0,0,1,0,27.5)"><g class="label anchor"><rect width="70.703125" height="24"></rect><text x="0" y="0" transform="matrix(1,0,0,1,5,17)"><tspan>Start of line</tspan></text></g></g><g class="match-fragment subexp regexp" transform="matrix(1,0,0,1,80.7031,0)"><path d="M10,22q0,-10 10,-10M175.35943603515625,22q0,-10 -10,-10M10,47q0,10 10,10M175.35943603515625,47q0,10 -10,10M0,39.5q10,0 10,-10V22M185.35943603515625,39.5q-10,0 -10,-10V22M0,39.5q10,0 10,10V47M185.35943603515625,39.5q-10,0 -10,10V47"></path><g transform="matrix(1,0,0,1,20,0)" class="regexp-matches"><path d="M0,12h60.3438M85.015675,12H145.35943603515625M0,57h0M130.359425,57H145.35943603515625"></path><g class="match match-fragment literal" transform="matrix(1,0,0,1,60.3438,0)"><g class="label"><rect width="24.671875" height="24" rx="3" ry="3"></rect><text x="0" y="0" transform="matrix(1,0,0,1,5,17)"><tspan class="quote">“</tspan><tspan>0</tspan><tspan class="quote">”</tspan></text></g></g><g class="match" transform="matrix(1,0,0,1,0,29)"><path d="M73.34378051757812,28H98.3438"></path><g class="match-fragment charset" transform="matrix(1,0,0,1,0,0)"><rect rx="3" ry="3" class="charset-box" transform="matrix(1,0,0,1,0,11)" width="73.34377670288086" height="34"></rect><text x="0" y="0" class="charset-label" transform="matrix(1,0,0,1,0,11)"><tspan>One of:</tspan></text><g transform="matrix(1,0,0,1,5,16)"><g class="charset-range" transform="matrix(1,0,0,1,0,0)"><text x="0" y="0" transform="matrix(1,0,0,1,29.6719,16)">-</text><g class="literal" transform="matrix(1,0,0,1,0,0)"><g class="label"><rect width="24.671875" height="24" rx="3" ry="3"></rect><text x="0" y="0" transform="matrix(1,0,0,1,5,17)"><tspan class="quote">“</tspan><tspan>1</tspan><tspan class="quote">”</tspan></text></g></g><g class="literal" transform="matrix(1,0,0,1,38.6719,0)"><g class="label"><rect width="24.671875" height="24" rx="3" ry="3"></rect><text x="0" y="0" transform="matrix(1,0,0,1,5,17)"><tspan class="quote">“</tspan><tspan>9</tspan><tspan class="quote">”</tspan></text></g></g></g></g></g><g class="match-fragment" transform="matrix(1,0,0,1,83.3438,6)"><path d="M0,22q10,0 10,-10v-2q0,-10 10,-10h22.015625q10,0 10,10v2q0,10 10,10M15,22q-10,0 -10,10v2q0,10 10,10h32.015625q10,0 10,-10v-2q0,-10 -10,-10M57.015625,37l5,-5m-5,5l-5,-5"></path><g class="escape" transform="matrix(1,0,0,1,15,10)"><g class="label"><rect width="32.015625" height="24" rx="3" ry="3"></rect><text x="0" y="0" transform="matrix(1,0,0,1,5,17)"><tspan>digit</tspan></text></g></g></g></g></g></g><g class="match-fragment" transform="matrix(1,0,0,1,276.0626,27.5)"><g class="label anchor"><rect width="66.71875" height="24"></rect><text x="0" y="0" transform="matrix(1,0,0,1,5,17)"><tspan>End of line</tspan></text></g></g></g><path d="M10,39.5H0M352.78135,39.5H362.7813415527344"></path><circle cx="0" cy="39.5" r="5"></circle><circle cx="362.7813415527344" cy="39.5" r="5"></circle></g></svg>
        