
          <svg xmlns="http://www.w3.org/2000/svg" xmlns:cc="http://creativecommons.org/ns#" xmlns:rdf="http://www.w3.org/1999/02/22-rdf-syntax-ns#" version="1.1" width="1646.046875" height="628.5313110351562">
            <defs>
              <style type="text/css">svg {
          background-color: #fff; }
        
        .root text,
        .root tspan {
          font: 12px Arial; }
        
        .root path {
          fill-opacity: 0;
          stroke-width: 2px;
          stroke: #000; }
        
        .root circle {
          fill: #6b6659;
          stroke-width: 2px;
          stroke: #000; }
        
        .anchor text, .any-character text {
          fill: #fff; }
        
        .anchor rect, .any-character rect {
          fill: #6b6659; }
        
        .escape text, .charset-escape text, .literal text {
          fill: #000; }
        
        .escape rect, .charset-escape rect {
          fill: #bada55; }
        
        .literal rect {
          fill: #dae9e5; }
        
        .charset .charset-box {
          fill: #cbcbba; }
        
        .subexp .subexp-label tspan,
        .charset .charset-label tspan,
        .match-fragment .repeat-label tspan {
          font-size: 10px; }
        
        .repeat-label {
          cursor: help; }
        
        .subexp .subexp-label tspan,
        .charset .charset-label tspan {
          dominant-baseline: text-after-edge; }
        
        .subexp .subexp-box {
          stroke: #908c83;
          stroke-dasharray: 6,2;
          stroke-width: 2px;
          fill-opacity: 0; }
        
        .quote {
          fill: #908c83; }
        </style>
            </defs>
            <metadata>
              <rdf:rdf>
                <cc:license rdf:about="http://creativecommons.org/licenses/by/3.0/">
                  <cc:permits rdf:resource="http://creativecommons.org/ns#Reproduction"></cc:permits>
                  <cc:permits rdf:resource="http://creativecommons.org/ns#Distribution"></cc:permits>
                  <cc:requires rdf:resource="http://creativecommons.org/ns#Notice"></cc:requires>
                  <cc:requires rdf:resource="http://creativecommons.org/ns#Attribution"></cc:requires>
                  <cc:permits rdf:resource="http://creativecommons.org/ns#DerivativeWorks"></cc:permits>
                </cc:license>
              </rdf:rdf>
            </metadata>
          <desc>Created with Snap</desc><g class="root" transform="matrix(1,0,0,1,15,21)"><text x="0" y="0">Flags: Global</text><g class="regexp" transform="matrix(1,0,0,1,10,13.5313)"><path d="M10,58.75q0,-10 10,-10M1586.046875,58.75q0,-10 -10,-10M10,322.25q0,10 10,10M1586.046875,322.25q0,10 -10,10M0,292q10,0 10,-10V58.75M1596.046875,292q-10,0 -10,-10V58.75M0,292q10,0 10,10V322.25M1596.046875,292q-10,0 -10,10V322.25"></path><g transform="matrix(1,0,0,1,20,0)" class="regexp-matches"><path d="M0,48.75h559.3047M986.742144482422,48.75H1556.046875M0,332.25h0M1526.04695,332.25H1556.046875"></path><g class="match" transform="matrix(1,0,0,1,559.3047,0)"><path d="M56.359375,48.75H66.3594M203.71874448242187,48.75H223.7187"></path><g class="match-fragment escape" transform="matrix(1,0,0,1,0,37)"><g class="label"><rect width="56.359375" height="23.5" rx="3" ry="3"></rect><text x="0" y="0" transform="matrix(1,0,0,1,5,16.75)"><tspan>U+D83C</tspan></text></g></g><g class="match-fragment charset" transform="matrix(1,0,0,1,66.3594,21)"><rect rx="3" ry="3" class="charset-box" transform="matrix(1,0,0,1,0,11)" width="137.3593521118164" height="33.5"></rect><text x="0" y="0" class="charset-label" transform="matrix(1,0,0,1,0,11)"><tspan>One of:</tspan></text><g transform="matrix(1,0,0,1,5,16)"><g class="charset-range" transform="matrix(1,0,0,1,0,0)"><text x="0" y="0" transform="matrix(1,0,0,1,62.0156,16)">-</text><g class="charset-escape" transform="matrix(1,0,0,1,0,0)"><g class="label"><rect width="57.015625" height="23.5" rx="3" ry="3"></rect><text x="0" y="0" transform="matrix(1,0,0,1,5,16.75)"><tspan>U+DFFB</tspan></text></g></g><g class="charset-escape" transform="matrix(1,0,0,1,71.0156,0)"><g class="label"><rect width="56.34375" height="23.5" rx="3" ry="3"></rect><text x="0" y="0" transform="matrix(1,0,0,1,5,16.75)"><tspan>U+DFFF</tspan></text></g></g></g></g></g><g class="match-fragment subexp" transform="matrix(1,0,0,1,213.7187,0)"><rect rx="3" ry="3" class="subexp-box" transform="matrix(1,0,0,1,0,11)" width="223.71875" height="64.5"></rect><text x="0" y="0" class="subexp-label" transform="matrix(1,0,0,1,0,11)"><tspan>positive lookahead</tspan></text><g class="regexp match" transform="matrix(1,0,0,1,10,21)"><path d="M56.359375,27.75H66.3594"></path><g class="match-fragment escape" transform="matrix(1,0,0,1,0,16)"><g class="label"><rect width="56.359375" height="23.5" rx="3" ry="3"></rect><text x="0" y="0" transform="matrix(1,0,0,1,5,16.75)"><tspan>U+D83C</tspan></text></g></g><g class="match-fragment charset" transform="matrix(1,0,0,1,66.3594,0)"><rect rx="3" ry="3" class="charset-box" transform="matrix(1,0,0,1,0,11)" width="137.3593521118164" height="33.5"></rect><text x="0" y="0" class="charset-label" transform="matrix(1,0,0,1,0,11)"><tspan>One of:</tspan></text><g transform="matrix(1,0,0,1,5,16)"><g class="charset-range" transform="matrix(1,0,0,1,0,0)"><text x="0" y="0" transform="matrix(1,0,0,1,62.0156,16)">-</text><g class="charset-escape" transform="matrix(1,0,0,1,0,0)"><g class="label"><rect width="57.015625" height="23.5" rx="3" ry="3"></rect><text x="0" y="0" transform="matrix(1,0,0,1,5,16.75)"><tspan>U+DFFB</tspan></text></g></g><g class="charset-escape" transform="matrix(1,0,0,1,71.0156,0)"><g class="label"><rect width="56.34375" height="23.5" rx="3" ry="3"></rect><text x="0" y="0" transform="matrix(1,0,0,1,5,16.75)"><tspan>U+DFFF</tspan></text></g></g></g></g></g></g></g></g><g class="match" transform="matrix(1,0,0,1,0,80.5)"><path d="M350.76568603515625,251.75H375.7657M441.4532,251.75H481.4532M725.1719499999999,251.75H765.1719"></path><g class="match-fragment subexp regexp" transform="matrix(1,0,0,1,0,0)"><path d="M10,104.75q0,-10 10,-10M340.76568603515625,104.75q0,-10 -10,-10M0,251.75c10,0 10,6.5 20,6.5M350.76568603515625,251.75c-10,0 -10,6.5 -20,6.5M10,354.75q0,10 10,10M340.76568603515625,354.75q0,10 -10,10M10,427.25q0,10 10,10M340.76568603515625,427.25q0,10 -10,10M10,476.75q0,10 10,10M340.76568603515625,476.75q0,10 -10,10M0,251.75q10,0 10,-10V104.75M350.76568603515625,251.75q-10,0 -10,-10V104.75M0,251.75q10,0 10,10V476.75M350.76568603515625,251.75q-10,0 -10,10V476.75"></path><g transform="matrix(1,0,0,1,20,0)" class="regexp-matches"><path d="M0,94.75h0M295.7657055175781,94.75H310.76568603515625M0,258.25h87.3594M223.40630551757812,258.25H310.76568603515625M0,364.75h50.0234M255.742175,364.75H310.76568603515625M0,437.25h14.336M296.42975551757814,437.25H310.76568603515625M0,486.75h88.0235M222.74225,486.75H310.76568603515625"></path><g class="match" transform="matrix(1,0,0,1,0,0)"><path d="M134.71875,94.75H159.7188"></path><g class="match-fragment charset" transform="matrix(1,0,0,1,0,67)"><rect rx="3" ry="3" class="charset-box" transform="matrix(1,0,0,1,0,11)" width="134.71875" height="33.5"></rect><text x="0" y="0" class="charset-label" transform="matrix(1,0,0,1,0,11)"><tspan>None of:</tspan></text><g transform="matrix(1,0,0,1,5,16)"><g class="charset-range" transform="matrix(1,0,0,1,0,0)"><text x="0" y="0" transform="matrix(1,0,0,1,59.375,16)">-</text><g class="charset-escape" transform="matrix(1,0,0,1,0,0)"><g class="label"><rect width="54.375" height="23.5" rx="3" ry="3"></rect><text x="0" y="0" transform="matrix(1,0,0,1,5,16.75)"><tspan>U+D800</tspan></text></g></g><g class="charset-escape" transform="matrix(1,0,0,1,68.375,0)"><g class="label"><rect width="56.34375" height="23.5" rx="3" ry="3"></rect><text x="0" y="0" transform="matrix(1,0,0,1,5,16.75)"><tspan>U+DFFF</tspan></text></g></g></g></g></g><g class="match-fragment" transform="matrix(1,0,0,1,144.7188,0)"><path d="M0,94.75q10,0 10,-10v-74.75q0,-10 10,-10h126.04690551757812q10,0 10,10v74.75q0,10 10,10"></path><g class="charset" transform="matrix(1,0,0,1,15,10)"><rect rx="3" ry="3" class="charset-box" transform="matrix(1,0,0,1,0,11)" width="136.0468978881836" height="147.5"></rect><text x="0" y="0" class="charset-label" transform="matrix(1,0,0,1,0,11)"><tspan>One of:</tspan></text><g transform="matrix(1,0,0,1,5,16)"><g class="charset-range" transform="matrix(1,0,0,1,3.3203,0)"><text x="0" y="0" transform="matrix(1,0,0,1,57.375,16)">-</text><g class="charset-escape" transform="matrix(1,0,0,1,0,0)"><g class="label"><rect width="52.375" height="23.5" rx="3" ry="3"></rect><text x="0" y="0" transform="matrix(1,0,0,1,5,16.75)"><tspan>U+0300</tspan></text></g></g><g class="charset-escape" transform="matrix(1,0,0,1,66.375,0)"><g class="label"><rect width="53.03125" height="23.5" rx="3" ry="3"></rect><text x="0" y="0" transform="matrix(1,0,0,1,5,16.75)"><tspan>U+036F</tspan></text></g></g></g><g class="charset-range" transform="matrix(1,0,0,1,1.3359,28.5)"><text x="0" y="0" transform="matrix(1,0,0,1,59.3594,16)">-</text><g class="charset-escape" transform="matrix(1,0,0,1,0,0)"><g class="label"><rect width="54.359375" height="23.5" rx="3" ry="3"></rect><text x="0" y="0" transform="matrix(1,0,0,1,5,16.75)"><tspan>U+FE20</tspan></text></g></g><g class="charset-escape" transform="matrix(1,0,0,1,68.3594,0)"><g class="label"><rect width="55.015625" height="23.5" rx="3" ry="3"></rect><text x="0" y="0" transform="matrix(1,0,0,1,5,16.75)"><tspan>U+FE2F</tspan></text></g></g></g><g class="charset-range" transform="matrix(1,0,0,1,1.9922,57)"><text x="0" y="0" transform="matrix(1,0,0,1,59.375,16)">-</text><g class="charset-escape" transform="matrix(1,0,0,1,0,0)"><g class="label"><rect width="54.375" height="23.5" rx="3" ry="3"></rect><text x="0" y="0" transform="matrix(1,0,0,1,5,16.75)"><tspan>U+20D0</tspan></text></g></g><g class="charset-escape" transform="matrix(1,0,0,1,68.375,0)"><g class="label"><rect width="53.6875" height="23.5" rx="3" ry="3"></rect><text x="0" y="0" transform="matrix(1,0,0,1,5,16.75)"><tspan>U+20FF</tspan></text></g></g></g><g class="charset-range" transform="matrix(1,0,0,1,1,85.5)"><text x="0" y="0" transform="matrix(1,0,0,1,60.0313,16)">-</text><g class="charset-escape" transform="matrix(1,0,0,1,0,0)"><g class="label"><rect width="55.03125" height="23.5" rx="3" ry="3"></rect><text x="0" y="0" transform="matrix(1,0,0,1,5,16.75)"><tspan>U+1AB0</tspan></text></g></g><g class="charset-escape" transform="matrix(1,0,0,1,69.0313,0)"><g class="label"><rect width="55.015625" height="23.5" rx="3" ry="3"></rect><text x="0" y="0" transform="matrix(1,0,0,1,5,16.75)"><tspan>U+1AFF</tspan></text></g></g></g><g class="charset-range" transform="matrix(1,0,0,1,0,114)"><text x="0" y="0" transform="matrix(1,0,0,1,61.3594,16)">-</text><g class="charset-escape" transform="matrix(1,0,0,1,0,0)"><g class="label"><rect width="56.359375" height="23.5" rx="3" ry="3"></rect><text x="0" y="0" transform="matrix(1,0,0,1,5,16.75)"><tspan>U+1DC0</tspan></text></g></g><g class="charset-escape" transform="matrix(1,0,0,1,70.3594,0)"><g class="label"><rect width="55.6875" height="23.5" rx="3" ry="3"></rect><text x="0" y="0" transform="matrix(1,0,0,1,5,16.75)"><tspan>U+1DFF</tspan></text></g></g></g></g></g></g></g><g class="match match-fragment charset" transform="matrix(1,0,0,1,87.3594,173.5)"><rect rx="3" ry="3" class="charset-box" transform="matrix(1,0,0,1,0,11)" width="136.0468978881836" height="147.5"></rect><text x="0" y="0" class="charset-label" transform="matrix(1,0,0,1,0,11)"><tspan>One of:</tspan></text><g transform="matrix(1,0,0,1,5,16)"><g class="charset-range" transform="matrix(1,0,0,1,3.3203,0)"><text x="0" y="0" transform="matrix(1,0,0,1,57.375,16)">-</text><g class="charset-escape" transform="matrix(1,0,0,1,0,0)"><g class="label"><rect width="52.375" height="23.5" rx="3" ry="3"></rect><text x="0" y="0" transform="matrix(1,0,0,1,5,16.75)"><tspan>U+0300</tspan></text></g></g><g class="charset-escape" transform="matrix(1,0,0,1,66.375,0)"><g class="label"><rect width="53.03125" height="23.5" rx="3" ry="3"></rect><text x="0" y="0" transform="matrix(1,0,0,1,5,16.75)"><tspan>U+036F</tspan></text></g></g></g><g class="charset-range" transform="matrix(1,0,0,1,1.3359,28.5)"><text x="0" y="0" transform="matrix(1,0,0,1,59.3594,16)">-</text><g class="charset-escape" transform="matrix(1,0,0,1,0,0)"><g class="label"><rect width="54.359375" height="23.5" rx="3" ry="3"></rect><text x="0" y="0" transform="matrix(1,0,0,1,5,16.75)"><tspan>U+FE20</tspan></text></g></g><g class="charset-escape" transform="matrix(1,0,0,1,68.3594,0)"><g class="label"><rect width="55.015625" height="23.5" rx="3" ry="3"></rect><text x="0" y="0" transform="matrix(1,0,0,1,5,16.75)"><tspan>U+FE2F</tspan></text></g></g></g><g class="charset-range" transform="matrix(1,0,0,1,1.9922,57)"><text x="0" y="0" transform="matrix(1,0,0,1,59.375,16)">-</text><g class="charset-escape" transform="matrix(1,0,0,1,0,0)"><g class="label"><rect width="54.375" height="23.5" rx="3" ry="3"></rect><text x="0" y="0" transform="matrix(1,0,0,1,5,16.75)"><tspan>U+20D0</tspan></text></g></g><g class="charset-escape" transform="matrix(1,0,0,1,68.375,0)"><g class="label"><rect width="53.6875" height="23.5" rx="3" ry="3"></rect><text x="0" y="0" transform="matrix(1,0,0,1,5,16.75)"><tspan>U+20FF</tspan></text></g></g></g><g class="charset-range" transform="matrix(1,0,0,1,1,85.5)"><text x="0" y="0" transform="matrix(1,0,0,1,60.0313,16)">-</text><g class="charset-escape" transform="matrix(1,0,0,1,0,0)"><g class="label"><rect width="55.03125" height="23.5" rx="3" ry="3"></rect><text x="0" y="0" transform="matrix(1,0,0,1,5,16.75)"><tspan>U+1AB0</tspan></text></g></g><g class="charset-escape" transform="matrix(1,0,0,1,69.0313,0)"><g class="label"><rect width="55.015625" height="23.5" rx="3" ry="3"></rect><text x="0" y="0" transform="matrix(1,0,0,1,5,16.75)"><tspan>U+1AFF</tspan></text></g></g></g><g class="charset-range" transform="matrix(1,0,0,1,0,114)"><text x="0" y="0" transform="matrix(1,0,0,1,61.3594,16)">-</text><g class="charset-escape" transform="matrix(1,0,0,1,0,0)"><g class="label"><rect width="56.359375" height="23.5" rx="3" ry="3"></rect><text x="0" y="0" transform="matrix(1,0,0,1,5,16.75)"><tspan>U+1DC0</tspan></text></g></g><g class="charset-escape" transform="matrix(1,0,0,1,70.3594,0)"><g class="label"><rect width="55.6875" height="23.5" rx="3" ry="3"></rect><text x="0" y="0" transform="matrix(1,0,0,1,5,16.75)"><tspan>U+1DFF</tspan></text></g></g></g></g></g><g class="match match-fragment" transform="matrix(1,0,0,1,40.0234,337)"><path d="M10,27.75q-10,0 -10,10v6.75q0,10 10,10h205.71878051757812q10,0 10,-10v-6.75q0,-10 -10,-10M225.71878051757812,42.75l5,-5m-5,5l-5,-5"></path><g class="subexp regexp match" transform="matrix(1,0,0,1,10,0)"><path d="M56.359375,27.75H66.3594"></path><g class="match-fragment escape" transform="matrix(1,0,0,1,0,16)"><g class="label"><rect width="56.359375" height="23.5" rx="3" ry="3"></rect><text x="0" y="0" transform="matrix(1,0,0,1,5,16.75)"><tspan>U+D83C</tspan></text></g></g><g class="match-fragment charset" transform="matrix(1,0,0,1,66.3594,0)"><rect rx="3" ry="3" class="charset-box" transform="matrix(1,0,0,1,0,11)" width="139.359375" height="33.5"></rect><text x="0" y="0" class="charset-label" transform="matrix(1,0,0,1,0,11)"><tspan>One of:</tspan></text><g transform="matrix(1,0,0,1,5,16)"><g class="charset-range" transform="matrix(1,0,0,1,0,0)"><text x="0" y="0" transform="matrix(1,0,0,1,62.6875,16)">-</text><g class="charset-escape" transform="matrix(1,0,0,1,0,0)"><g class="label"><rect width="57.6875" height="23.5" rx="3" ry="3"></rect><text x="0" y="0" transform="matrix(1,0,0,1,5,16.75)"><tspan>U+DDE6</tspan></text></g></g><g class="charset-escape" transform="matrix(1,0,0,1,71.6875,0)"><g class="label"><rect width="57.671875" height="23.5" rx="3" ry="3"></rect><text x="0" y="0" transform="matrix(1,0,0,1,5,16.75)"><tspan>U+DDFF</tspan></text></g></g></g></g></g></g><text x="0" y="0" class="repeat-label" transform="matrix(1,0,0,1,209.0313,65.5)"><tspan>once</tspan><title><text x="0" y="0">repeats 2 times in total</text></title></text></g><g class="match" transform="matrix(1,0,0,1,14.336,409.5)"><path d="M135.390625,27.75H145.3906"></path><g class="match-fragment charset" transform="matrix(1,0,0,1,0,0)"><rect rx="3" ry="3" class="charset-box" transform="matrix(1,0,0,1,0,11)" width="135.390625" height="33.5"></rect><text x="0" y="0" class="charset-label" transform="matrix(1,0,0,1,0,11)"><tspan>One of:</tspan></text><g transform="matrix(1,0,0,1,5,16)"><g class="charset-range" transform="matrix(1,0,0,1,0,0)"><text x="0" y="0" transform="matrix(1,0,0,1,59.375,16)">-</text><g class="charset-escape" transform="matrix(1,0,0,1,0,0)"><g class="label"><rect width="54.375" height="23.5" rx="3" ry="3"></rect><text x="0" y="0" transform="matrix(1,0,0,1,5,16.75)"><tspan>U+D800</tspan></text></g></g><g class="charset-escape" transform="matrix(1,0,0,1,68.375,0)"><g class="label"><rect width="57.015625" height="23.5" rx="3" ry="3"></rect><text x="0" y="0" transform="matrix(1,0,0,1,5,16.75)"><tspan>U+DBFF</tspan></text></g></g></g></g></g><g class="match-fragment charset" transform="matrix(1,0,0,1,145.3906,0)"><rect rx="3" ry="3" class="charset-box" transform="matrix(1,0,0,1,0,11)" width="136.7031478881836" height="33.5"></rect><text x="0" y="0" class="charset-label" transform="matrix(1,0,0,1,0,11)"><tspan>One of:</tspan></text><g transform="matrix(1,0,0,1,5,16)"><g class="charset-range" transform="matrix(1,0,0,1,0,0)"><text x="0" y="0" transform="matrix(1,0,0,1,61.3594,16)">-</text><g class="charset-escape" transform="matrix(1,0,0,1,0,0)"><g class="label"><rect width="56.359375" height="23.5" rx="3" ry="3"></rect><text x="0" y="0" transform="matrix(1,0,0,1,5,16.75)"><tspan>U+DC00</tspan></text></g></g><g class="charset-escape" transform="matrix(1,0,0,1,70.3594,0)"><g class="label"><rect width="56.34375" height="23.5" rx="3" ry="3"></rect><text x="0" y="0" transform="matrix(1,0,0,1,5,16.75)"><tspan>U+DFFF</tspan></text></g></g></g></g></g></g><g class="match match-fragment charset" transform="matrix(1,0,0,1,88.0235,459)"><rect rx="3" ry="3" class="charset-box" transform="matrix(1,0,0,1,0,11)" width="134.71875" height="33.5"></rect><text x="0" y="0" class="charset-label" transform="matrix(1,0,0,1,0,11)"><tspan>One of:</tspan></text><g transform="matrix(1,0,0,1,5,16)"><g class="charset-range" transform="matrix(1,0,0,1,0,0)"><text x="0" y="0" transform="matrix(1,0,0,1,59.375,16)">-</text><g class="charset-escape" transform="matrix(1,0,0,1,0,0)"><g class="label"><rect width="54.375" height="23.5" rx="3" ry="3"></rect><text x="0" y="0" transform="matrix(1,0,0,1,5,16.75)"><tspan>U+D800</tspan></text></g></g><g class="charset-escape" transform="matrix(1,0,0,1,68.375,0)"><g class="label"><rect width="56.34375" height="23.5" rx="3" ry="3"></rect><text x="0" y="0" transform="matrix(1,0,0,1,5,16.75)"><tspan>U+DFFF</tspan></text></g></g></g></g></g></g></g><g class="match-fragment" transform="matrix(1,0,0,1,360.7657,199.75)"><path d="M0,52q10,0 10,-10v-32q0,-10 10,-10h55.6875q10,0 10,10v32q0,10 10,10"></path><g class="charset" transform="matrix(1,0,0,1,15,10)"><rect rx="3" ry="3" class="charset-box" transform="matrix(1,0,0,1,0,11)" width="65.6875" height="62"></rect><text x="0" y="0" class="charset-label" transform="matrix(1,0,0,1,0,11)"><tspan>One of:</tspan></text><g transform="matrix(1,0,0,1,5,16)"><g class="charset-escape" transform="matrix(1,0,0,1,0,0)"><g class="label"><rect width="55.6875" height="23.5" rx="3" ry="3"></rect><text x="0" y="0" transform="matrix(1,0,0,1,5,16.75)"><tspan>U+FE0E</tspan></text></g></g><g class="charset-escape" transform="matrix(1,0,0,1,0.3359,28.5)"><g class="label"><rect width="55.015625" height="23.5" rx="3" ry="3"></rect><text x="0" y="0" transform="matrix(1,0,0,1,5,16.75)"><tspan>U+FE0F</tspan></text></g></g></g></g></g><g class="match-fragment" transform="matrix(1,0,0,1,466.4532,137.75)"><path d="M0,114q10,0 10,-10v-94q0,-10 10,-10h233.71875q10,0 10,10v94q0,10 10,10"></path><g class="subexp regexp" transform="matrix(1,0,0,1,15,10)"><path d="M10,94.75q0,-10 10,-10M233.71875,94.75q0,-10 -10,-10M10,181.25q0,10 10,10M233.71875,181.25q0,10 -10,10M0,104q10,0 10,-10V94.75M243.71875,104q-10,0 -10,-10V94.75M0,104q10,0 10,10V181.25M243.71875,104q-10,0 -10,10V181.25"></path><g transform="matrix(1,0,0,1,20,0)" class="regexp-matches"><path d="M0,84.75h33.8359M169.88280551757813,84.75H203.71875M0,191.25h0M203.71874448242187,191.25H203.71875"></path><g class="match match-fragment charset" transform="matrix(1,0,0,1,33.8359,0)"><rect rx="3" ry="3" class="charset-box" transform="matrix(1,0,0,1,0,11)" width="136.0468978881836" height="147.5"></rect><text x="0" y="0" class="charset-label" transform="matrix(1,0,0,1,0,11)"><tspan>One of:</tspan></text><g transform="matrix(1,0,0,1,5,16)"><g class="charset-range" transform="matrix(1,0,0,1,3.3203,0)"><text x="0" y="0" transform="matrix(1,0,0,1,57.375,16)">-</text><g class="charset-escape" transform="matrix(1,0,0,1,0,0)"><g class="label"><rect width="52.375" height="23.5" rx="3" ry="3"></rect><text x="0" y="0" transform="matrix(1,0,0,1,5,16.75)"><tspan>U+0300</tspan></text></g></g><g class="charset-escape" transform="matrix(1,0,0,1,66.375,0)"><g class="label"><rect width="53.03125" height="23.5" rx="3" ry="3"></rect><text x="0" y="0" transform="matrix(1,0,0,1,5,16.75)"><tspan>U+036F</tspan></text></g></g></g><g class="charset-range" transform="matrix(1,0,0,1,1.3359,28.5)"><text x="0" y="0" transform="matrix(1,0,0,1,59.3594,16)">-</text><g class="charset-escape" transform="matrix(1,0,0,1,0,0)"><g class="label"><rect width="54.359375" height="23.5" rx="3" ry="3"></rect><text x="0" y="0" transform="matrix(1,0,0,1,5,16.75)"><tspan>U+FE20</tspan></text></g></g><g class="charset-escape" transform="matrix(1,0,0,1,68.3594,0)"><g class="label"><rect width="55.015625" height="23.5" rx="3" ry="3"></rect><text x="0" y="0" transform="matrix(1,0,0,1,5,16.75)"><tspan>U+FE2F</tspan></text></g></g></g><g class="charset-range" transform="matrix(1,0,0,1,1.9922,57)"><text x="0" y="0" transform="matrix(1,0,0,1,59.375,16)">-</text><g class="charset-escape" transform="matrix(1,0,0,1,0,0)"><g class="label"><rect width="54.375" height="23.5" rx="3" ry="3"></rect><text x="0" y="0" transform="matrix(1,0,0,1,5,16.75)"><tspan>U+20D0</tspan></text></g></g><g class="charset-escape" transform="matrix(1,0,0,1,68.375,0)"><g class="label"><rect width="53.6875" height="23.5" rx="3" ry="3"></rect><text x="0" y="0" transform="matrix(1,0,0,1,5,16.75)"><tspan>U+20FF</tspan></text></g></g></g><g class="charset-range" transform="matrix(1,0,0,1,1,85.5)"><text x="0" y="0" transform="matrix(1,0,0,1,60.0313,16)">-</text><g class="charset-escape" transform="matrix(1,0,0,1,0,0)"><g class="label"><rect width="55.03125" height="23.5" rx="3" ry="3"></rect><text x="0" y="0" transform="matrix(1,0,0,1,5,16.75)"><tspan>U+1AB0</tspan></text></g></g><g class="charset-escape" transform="matrix(1,0,0,1,69.0313,0)"><g class="label"><rect width="55.015625" height="23.5" rx="3" ry="3"></rect><text x="0" y="0" transform="matrix(1,0,0,1,5,16.75)"><tspan>U+1AFF</tspan></text></g></g></g><g class="charset-range" transform="matrix(1,0,0,1,0,114)"><text x="0" y="0" transform="matrix(1,0,0,1,61.3594,16)">-</text><g class="charset-escape" transform="matrix(1,0,0,1,0,0)"><g class="label"><rect width="56.359375" height="23.5" rx="3" ry="3"></rect><text x="0" y="0" transform="matrix(1,0,0,1,5,16.75)"><tspan>U+1DC0</tspan></text></g></g><g class="charset-escape" transform="matrix(1,0,0,1,70.3594,0)"><g class="label"><rect width="55.6875" height="23.5" rx="3" ry="3"></rect><text x="0" y="0" transform="matrix(1,0,0,1,5,16.75)"><tspan>U+1DFF</tspan></text></g></g></g></g></g><g class="match" transform="matrix(1,0,0,1,0,163.5)"><path d="M56.359375,27.75H66.3594"></path><g class="match-fragment escape" transform="matrix(1,0,0,1,0,16)"><g class="label"><rect width="56.359375" height="23.5" rx="3" ry="3"></rect><text x="0" y="0" transform="matrix(1,0,0,1,5,16.75)"><tspan>U+D83C</tspan></text></g></g><g class="match-fragment charset" transform="matrix(1,0,0,1,66.3594,0)"><rect rx="3" ry="3" class="charset-box" transform="matrix(1,0,0,1,0,11)" width="137.3593521118164" height="33.5"></rect><text x="0" y="0" class="charset-label" transform="matrix(1,0,0,1,0,11)"><tspan>One of:</tspan></text><g transform="matrix(1,0,0,1,5,16)"><g class="charset-range" transform="matrix(1,0,0,1,0,0)"><text x="0" y="0" transform="matrix(1,0,0,1,62.0156,16)">-</text><g class="charset-escape" transform="matrix(1,0,0,1,0,0)"><g class="label"><rect width="57.015625" height="23.5" rx="3" ry="3"></rect><text x="0" y="0" transform="matrix(1,0,0,1,5,16.75)"><tspan>U+DFFB</tspan></text></g></g><g class="charset-escape" transform="matrix(1,0,0,1,71.0156,0)"><g class="label"><rect width="56.34375" height="23.5" rx="3" ry="3"></rect><text x="0" y="0" transform="matrix(1,0,0,1,5,16.75)"><tspan>U+DFFF</tspan></text></g></g></g></g></g></g></g></g></g><g class="match-fragment" transform="matrix(1,0,0,1,750.1719,127.75)"><path d="M0,124q10,0 10,-10v-104q0,-10 10,-10h765.8750610351562q10,0 10,10v104q0,10 10,10M15,124q-10,0 -10,10v94q0,10 10,10h775.8750610351562q10,0 10,-10v-94q0,-10 -10,-10M800.8750610351562,139l5,-5m-5,5l-5,-5"></path><g class="subexp regexp match" transform="matrix(1,0,0,1,15,10)"><path d="M54.375,114H64.375M386.46875,114H411.4688M477.1563,114H517.1563"></path><g class="match-fragment escape" transform="matrix(1,0,0,1,0,102.25)"><g class="label"><rect width="54.375" height="23.5" rx="3" ry="3"></rect><text x="0" y="0" transform="matrix(1,0,0,1,5,16.75)"><tspan>U+200D</tspan></text></g></g><g class="match-fragment subexp regexp" transform="matrix(1,0,0,1,64.375,30.75)"><path d="M10,37.75q0,-10 10,-10M312.09375,37.75q0,-10 -10,-10M0,83.25c10,0 10,-6 20,-6M322.09375,83.25c-10,0 -10,-6 -20,-6M10,139.75q0,10 10,10M312.09375,139.75q0,10 -10,10M0,83.25q10,0 10,-10V37.75M322.09375,83.25q-10,0 -10,-10V37.75M0,83.25q10,0 10,10V139.75M322.09375,83.25q-10,0 -10,10V139.75"></path><g transform="matrix(1,0,0,1,20,0)" class="regexp-matches"><path d="M0,27.75h73.6875M208.40625,27.75H282.09375M0,77.25h35.6875M241.406275,77.25H282.09375M0,149.75h0M282.09375551757813,149.75H282.09375"></path><g class="match match-fragment charset" transform="matrix(1,0,0,1,73.6875,0)"><rect rx="3" ry="3" class="charset-box" transform="matrix(1,0,0,1,0,11)" width="134.71875" height="33.5"></rect><text x="0" y="0" class="charset-label" transform="matrix(1,0,0,1,0,11)"><tspan>None of:</tspan></text><g transform="matrix(1,0,0,1,5,16)"><g class="charset-range" transform="matrix(1,0,0,1,0,0)"><text x="0" y="0" transform="matrix(1,0,0,1,59.375,16)">-</text><g class="charset-escape" transform="matrix(1,0,0,1,0,0)"><g class="label"><rect width="54.375" height="23.5" rx="3" ry="3"></rect><text x="0" y="0" transform="matrix(1,0,0,1,5,16.75)"><tspan>U+D800</tspan></text></g></g><g class="charset-escape" transform="matrix(1,0,0,1,68.375,0)"><g class="label"><rect width="56.34375" height="23.5" rx="3" ry="3"></rect><text x="0" y="0" transform="matrix(1,0,0,1,5,16.75)"><tspan>U+DFFF</tspan></text></g></g></g></g></g><g class="match match-fragment" transform="matrix(1,0,0,1,25.6875,49.5)"><path d="M10,27.75q-10,0 -10,10v6.75q0,10 10,10h205.71878051757812q10,0 10,-10v-6.75q0,-10 -10,-10M225.71878051757812,42.75l5,-5m-5,5l-5,-5"></path><g class="subexp regexp match" transform="matrix(1,0,0,1,10,0)"><path d="M56.359375,27.75H66.3594"></path><g class="match-fragment escape" transform="matrix(1,0,0,1,0,16)"><g class="label"><rect width="56.359375" height="23.5" rx="3" ry="3"></rect><text x="0" y="0" transform="matrix(1,0,0,1,5,16.75)"><tspan>U+D83C</tspan></text></g></g><g class="match-fragment charset" transform="matrix(1,0,0,1,66.3594,0)"><rect rx="3" ry="3" class="charset-box" transform="matrix(1,0,0,1,0,11)" width="139.359375" height="33.5"></rect><text x="0" y="0" class="charset-label" transform="matrix(1,0,0,1,0,11)"><tspan>One of:</tspan></text><g transform="matrix(1,0,0,1,5,16)"><g class="charset-range" transform="matrix(1,0,0,1,0,0)"><text x="0" y="0" transform="matrix(1,0,0,1,62.6875,16)">-</text><g class="charset-escape" transform="matrix(1,0,0,1,0,0)"><g class="label"><rect width="57.6875" height="23.5" rx="3" ry="3"></rect><text x="0" y="0" transform="matrix(1,0,0,1,5,16.75)"><tspan>U+DDE6</tspan></text></g></g><g class="charset-escape" transform="matrix(1,0,0,1,71.6875,0)"><g class="label"><rect width="57.671875" height="23.5" rx="3" ry="3"></rect><text x="0" y="0" transform="matrix(1,0,0,1,5,16.75)"><tspan>U+DDFF</tspan></text></g></g></g></g></g></g><text x="0" y="0" class="repeat-label" transform="matrix(1,0,0,1,209.0313,65.5)"><tspan>once</tspan><title><text x="0" y="0">repeats 2 times in total</text></title></text></g><g class="match" transform="matrix(1,0,0,1,0,122)"><path d="M135.390625,27.75H145.3906"></path><g class="match-fragment charset" transform="matrix(1,0,0,1,0,0)"><rect rx="3" ry="3" class="charset-box" transform="matrix(1,0,0,1,0,11)" width="135.390625" height="33.5"></rect><text x="0" y="0" class="charset-label" transform="matrix(1,0,0,1,0,11)"><tspan>One of:</tspan></text><g transform="matrix(1,0,0,1,5,16)"><g class="charset-range" transform="matrix(1,0,0,1,0,0)"><text x="0" y="0" transform="matrix(1,0,0,1,59.375,16)">-</text><g class="charset-escape" transform="matrix(1,0,0,1,0,0)"><g class="label"><rect width="54.375" height="23.5" rx="3" ry="3"></rect><text x="0" y="0" transform="matrix(1,0,0,1,5,16.75)"><tspan>U+D800</tspan></text></g></g><g class="charset-escape" transform="matrix(1,0,0,1,68.375,0)"><g class="label"><rect width="57.015625" height="23.5" rx="3" ry="3"></rect><text x="0" y="0" transform="matrix(1,0,0,1,5,16.75)"><tspan>U+DBFF</tspan></text></g></g></g></g></g><g class="match-fragment charset" transform="matrix(1,0,0,1,145.3906,0)"><rect rx="3" ry="3" class="charset-box" transform="matrix(1,0,0,1,0,11)" width="136.7031478881836" height="33.5"></rect><text x="0" y="0" class="charset-label" transform="matrix(1,0,0,1,0,11)"><tspan>One of:</tspan></text><g transform="matrix(1,0,0,1,5,16)"><g class="charset-range" transform="matrix(1,0,0,1,0,0)"><text x="0" y="0" transform="matrix(1,0,0,1,61.3594,16)">-</text><g class="charset-escape" transform="matrix(1,0,0,1,0,0)"><g class="label"><rect width="56.359375" height="23.5" rx="3" ry="3"></rect><text x="0" y="0" transform="matrix(1,0,0,1,5,16.75)"><tspan>U+DC00</tspan></text></g></g><g class="charset-escape" transform="matrix(1,0,0,1,70.3594,0)"><g class="label"><rect width="56.34375" height="23.5" rx="3" ry="3"></rect><text x="0" y="0" transform="matrix(1,0,0,1,5,16.75)"><tspan>U+DFFF</tspan></text></g></g></g></g></g></g></g></g><g class="match-fragment" transform="matrix(1,0,0,1,396.4688,62)"><path d="M0,52q10,0 10,-10v-32q0,-10 10,-10h55.6875q10,0 10,10v32q0,10 10,10"></path><g class="charset" transform="matrix(1,0,0,1,15,10)"><rect rx="3" ry="3" class="charset-box" transform="matrix(1,0,0,1,0,11)" width="65.6875" height="62"></rect><text x="0" y="0" class="charset-label" transform="matrix(1,0,0,1,0,11)"><tspan>One of:</tspan></text><g transform="matrix(1,0,0,1,5,16)"><g class="charset-escape" transform="matrix(1,0,0,1,0,0)"><g class="label"><rect width="55.6875" height="23.5" rx="3" ry="3"></rect><text x="0" y="0" transform="matrix(1,0,0,1,5,16.75)"><tspan>U+FE0E</tspan></text></g></g><g class="charset-escape" transform="matrix(1,0,0,1,0.3359,28.5)"><g class="label"><rect width="55.015625" height="23.5" rx="3" ry="3"></rect><text x="0" y="0" transform="matrix(1,0,0,1,5,16.75)"><tspan>U+FE0F</tspan></text></g></g></g></g></g><g class="match-fragment" transform="matrix(1,0,0,1,502.1563,0)"><path d="M0,114q10,0 10,-10v-94q0,-10 10,-10h233.71875q10,0 10,10v94q0,10 10,10"></path><g class="subexp regexp" transform="matrix(1,0,0,1,15,10)"><path d="M10,94.75q0,-10 10,-10M233.71875,94.75q0,-10 -10,-10M10,181.25q0,10 10,10M233.71875,181.25q0,10 -10,10M0,104q10,0 10,-10V94.75M243.71875,104q-10,0 -10,-10V94.75M0,104q10,0 10,10V181.25M243.71875,104q-10,0 -10,10V181.25"></path><g transform="matrix(1,0,0,1,20,0)" class="regexp-matches"><path d="M0,84.75h33.8359M169.88280551757813,84.75H203.71875M0,191.25h0M203.71874448242187,191.25H203.71875"></path><g class="match match-fragment charset" transform="matrix(1,0,0,1,33.8359,0)"><rect rx="3" ry="3" class="charset-box" transform="matrix(1,0,0,1,0,11)" width="136.0468978881836" height="147.5"></rect><text x="0" y="0" class="charset-label" transform="matrix(1,0,0,1,0,11)"><tspan>One of:</tspan></text><g transform="matrix(1,0,0,1,5,16)"><g class="charset-range" transform="matrix(1,0,0,1,3.3203,0)"><text x="0" y="0" transform="matrix(1,0,0,1,57.375,16)">-</text><g class="charset-escape" transform="matrix(1,0,0,1,0,0)"><g class="label"><rect width="52.375" height="23.5" rx="3" ry="3"></rect><text x="0" y="0" transform="matrix(1,0,0,1,5,16.75)"><tspan>U+0300</tspan></text></g></g><g class="charset-escape" transform="matrix(1,0,0,1,66.375,0)"><g class="label"><rect width="53.03125" height="23.5" rx="3" ry="3"></rect><text x="0" y="0" transform="matrix(1,0,0,1,5,16.75)"><tspan>U+036F</tspan></text></g></g></g><g class="charset-range" transform="matrix(1,0,0,1,1.3359,28.5)"><text x="0" y="0" transform="matrix(1,0,0,1,59.3594,16)">-</text><g class="charset-escape" transform="matrix(1,0,0,1,0,0)"><g class="label"><rect width="54.359375" height="23.5" rx="3" ry="3"></rect><text x="0" y="0" transform="matrix(1,0,0,1,5,16.75)"><tspan>U+FE20</tspan></text></g></g><g class="charset-escape" transform="matrix(1,0,0,1,68.3594,0)"><g class="label"><rect width="55.015625" height="23.5" rx="3" ry="3"></rect><text x="0" y="0" transform="matrix(1,0,0,1,5,16.75)"><tspan>U+FE2F</tspan></text></g></g></g><g class="charset-range" transform="matrix(1,0,0,1,1.9922,57)"><text x="0" y="0" transform="matrix(1,0,0,1,59.375,16)">-</text><g class="charset-escape" transform="matrix(1,0,0,1,0,0)"><g class="label"><rect width="54.375" height="23.5" rx="3" ry="3"></rect><text x="0" y="0" transform="matrix(1,0,0,1,5,16.75)"><tspan>U+20D0</tspan></text></g></g><g class="charset-escape" transform="matrix(1,0,0,1,68.375,0)"><g class="label"><rect width="53.6875" height="23.5" rx="3" ry="3"></rect><text x="0" y="0" transform="matrix(1,0,0,1,5,16.75)"><tspan>U+20FF</tspan></text></g></g></g><g class="charset-range" transform="matrix(1,0,0,1,1,85.5)"><text x="0" y="0" transform="matrix(1,0,0,1,60.0313,16)">-</text><g class="charset-escape" transform="matrix(1,0,0,1,0,0)"><g class="label"><rect width="55.03125" height="23.5" rx="3" ry="3"></rect><text x="0" y="0" transform="matrix(1,0,0,1,5,16.75)"><tspan>U+1AB0</tspan></text></g></g><g class="charset-escape" transform="matrix(1,0,0,1,69.0313,0)"><g class="label"><rect width="55.015625" height="23.5" rx="3" ry="3"></rect><text x="0" y="0" transform="matrix(1,0,0,1,5,16.75)"><tspan>U+1AFF</tspan></text></g></g></g><g class="charset-range" transform="matrix(1,0,0,1,0,114)"><text x="0" y="0" transform="matrix(1,0,0,1,61.3594,16)">-</text><g class="charset-escape" transform="matrix(1,0,0,1,0,0)"><g class="label"><rect width="56.359375" height="23.5" rx="3" ry="3"></rect><text x="0" y="0" transform="matrix(1,0,0,1,5,16.75)"><tspan>U+1DC0</tspan></text></g></g><g class="charset-escape" transform="matrix(1,0,0,1,70.3594,0)"><g class="label"><rect width="55.6875" height="23.5" rx="3" ry="3"></rect><text x="0" y="0" transform="matrix(1,0,0,1,5,16.75)"><tspan>U+1DFF</tspan></text></g></g></g></g></g><g class="match" transform="matrix(1,0,0,1,0,163.5)"><path d="M56.359375,27.75H66.3594"></path><g class="match-fragment escape" transform="matrix(1,0,0,1,0,16)"><g class="label"><rect width="56.359375" height="23.5" rx="3" ry="3"></rect><text x="0" y="0" transform="matrix(1,0,0,1,5,16.75)"><tspan>U+D83C</tspan></text></g></g><g class="match-fragment charset" transform="matrix(1,0,0,1,66.3594,0)"><rect rx="3" ry="3" class="charset-box" transform="matrix(1,0,0,1,0,11)" width="137.3593521118164" height="33.5"></rect><text x="0" y="0" class="charset-label" transform="matrix(1,0,0,1,0,11)"><tspan>One of:</tspan></text><g transform="matrix(1,0,0,1,5,16)"><g class="charset-range" transform="matrix(1,0,0,1,0,0)"><text x="0" y="0" transform="matrix(1,0,0,1,62.0156,16)">-</text><g class="charset-escape" transform="matrix(1,0,0,1,0,0)"><g class="label"><rect width="57.015625" height="23.5" rx="3" ry="3"></rect><text x="0" y="0" transform="matrix(1,0,0,1,5,16.75)"><tspan>U+DFFB</tspan></text></g></g><g class="charset-escape" transform="matrix(1,0,0,1,71.0156,0)"><g class="label"><rect width="56.34375" height="23.5" rx="3" ry="3"></rect><text x="0" y="0" transform="matrix(1,0,0,1,5,16.75)"><tspan>U+DFFF</tspan></text></g></g></g></g></g></g></g></g></g></g></g></g></g></g><path d="M10,305.5313H0M1606.046875,305.5313H1616.046875"></path><circle cx="0" cy="305.5313" r="5"></circle><circle cx="1616.046875" cy="305.5313" r="5"></circle></g></svg>
        