
          <svg xmlns="http://www.w3.org/2000/svg" xmlns:cc="http://creativecommons.org/ns#" xmlns:rdf="http://www.w3.org/1999/02/22-rdf-syntax-ns#" version="1.1" width="385.75006103515625" height="187.1094512939453">
            <defs>
              <style type="text/css">svg {
          background-color: #fff; }
        
        .root text,
        .root tspan {
          font: 12px Arial; }
        
        .root path {
          fill-opacity: 0;
          stroke-width: 2px;
          stroke: #000; }
        
        .root circle {
          fill: #6b6659;
          stroke-width: 2px;
          stroke: #000; }
        
        .anchor text, .any-character text {
          fill: #fff; }
        
        .anchor rect, .any-character rect {
          fill: #6b6659; }
        
        .escape text, .charset-escape text, .literal text {
          fill: #000; }
        
        .escape rect, .charset-escape rect {
          fill: #bada55; }
        
        .literal rect {
          fill: #dae9e5; }
        
        .charset .charset-box {
          fill: #cbcbba; }
        
        .subexp .subexp-label tspan,
        .charset .charset-label tspan,
        .match-fragment .repeat-label tspan {
          font-size: 10px; }
        
        .repeat-label {
          cursor: help; }
        
        .subexp .subexp-label tspan,
        .charset .charset-label tspan {
          dominant-baseline: text-after-edge; }
        
        .subexp .subexp-box {
          stroke: #908c83;
          stroke-dasharray: 6,2;
          stroke-width: 2px;
          fill-opacity: 0; }
        
        .quote {
          fill: #908c83; }
        </style>
            </defs>
            <metadata>
              <rdf:rdf>
                <cc:license rdf:about="http://creativecommons.org/licenses/by/3.0/">
                  <cc:permits rdf:resource="http://creativecommons.org/ns#Reproduction"></cc:permits>
                  <cc:permits rdf:resource="http://creativecommons.org/ns#Distribution"></cc:permits>
                  <cc:requires rdf:resource="http://creativecommons.org/ns#Notice"></cc:requires>
                  <cc:requires rdf:resource="http://creativecommons.org/ns#Attribution"></cc:requires>
                  <cc:permits rdf:resource="http://creativecommons.org/ns#DerivativeWorks"></cc:permits>
                </cc:license>
              </rdf:rdf>
            </metadata>
          <desc>Created with Snap</desc><g class="root" transform="matrix(1,0,0,1,15,21)"><text x="0" y="0">Flags: Global</text><g class="regexp" transform="matrix(1,0,0,1,10,13.5313)"><path d="M10,21.765625q0,-10 10,-10M325.75006103515625,21.765625q0,-10 -10,-10M0,71.28907775878906c10,0 10,-9.89837775878906 20,-9.89837775878906M335.75006103515625,71.28907775878906c-10,0 -10,-9.89837775878906 -20,-9.89837775878906M10,110.8125q0,10 10,10M325.75006103515625,110.8125q0,10 -10,10M0,71.28907775878906q10,0 10,-10V21.765625M335.75006103515625,71.28907775878906q-10,0 -10,-10V21.765625M0,71.28907775878906q10,0 10,10V110.8125M335.75006103515625,71.28907775878906q-10,0 -10,10V110.8125"></path><g transform="matrix(1,0,0,1,20,0)" class="regexp-matches"><path d="M0,11.765625h94.1875M201.5625,11.765625H295.75006103515625M0,61.3907h10M266.99222499999996,61.3907H295.75006103515625M0,120.8125h25.6797M240.98437499999997,120.8125H295.75006103515625"></path><g class="match match-fragment literal" transform="matrix(1,0,0,1,94.1875,0)"><g class="label"><rect width="107.375" height="23.53125" rx="3" ry="3"></rect><text x="0" y="0" transform="matrix(1,0,0,1,5,16.7656)"><tspan class="quote">“</tspan><tspan>hasOwnProperty</tspan><tspan class="quote">”</tspan></text></g></g><g class="match" transform="matrix(1,0,0,1,0,28.5313)"><path d="M70.03125,32.8594H105.0313M187.9063,32.859425H241.6641"></path><g class="match-fragment subexp" transform="matrix(1,0,0,1,0,0)"><rect rx="3" ry="3" class="subexp-box" transform="matrix(1,0,0,1,0,11.1094)" width="80.03125" height="43.5"></rect><text x="0" y="0" class="subexp-label" transform="matrix(1,0,0,1,0,11.1094)"><tspan>group #1</tspan></text><g class="regexp match match-fragment literal" transform="matrix(1,0,0,1,10,21.1094)"><g class="label"><rect width="60.03125" height="23.5" rx="3" ry="3"></rect><text x="0" y="0" transform="matrix(1,0,0,1,5,16.75)"><tspan class="quote">“</tspan><tspan>function</tspan><tspan class="quote">”</tspan></text></g></g></g><g class="match-fragment" transform="matrix(1,0,0,1,90.0313,11.0938)"><path d="M0,21.765625q10,0 10,-10v-1.765625q0,-10 10,-10h72.875q10,0 10,10v1.765625q0,10 10,10M10,6.765625l5,5m-5,-5l-5,5M15,21.765625q-10,0 -10,10v1.765625q0,10 10,10h82.875q10,0 10,-10v-1.765625q0,-10 -10,-10"></path><g class="any-character" transform="matrix(1,0,0,1,15,10)"><g class="label"><rect width="82.875" height="23.53125"></rect><text x="0" y="0" transform="matrix(1,0,0,1,5,16.7656)"><tspan>any character</tspan></text></g></g></g><g class="match-fragment subexp" transform="matrix(1,0,0,1,212.9063,0.0938)"><rect rx="3" ry="3" class="subexp-box" transform="matrix(1,0,0,1,0,11)" width="82.84375" height="43.53125"></rect><text x="0" y="0" class="subexp-label" transform="matrix(1,0,0,1,0,11)"><tspan>positive lookahead</tspan></text><g class="regexp match match-fragment literal" transform="matrix(1,0,0,1,28.7578,21)"><g class="label"><rect width="25.328125" height="23.53125" rx="3" ry="3"></rect><text x="0" y="0" transform="matrix(1,0,0,1,5,16.7656)"><tspan class="quote">“</tspan><tspan>\(</tspan><tspan class="quote">”</tspan></text></g></g></g></g><g class="match" transform="matrix(1,0,0,1,25.6797,88.0625)"><path d="M38.671875,32.75H58.6719M141.5469,32.750025H190.6328"></path><g class="match-fragment literal" transform="matrix(1,0,0,1,0,21)"><g class="label"><rect width="38.671875" height="23.5" rx="3" ry="3"></rect><text x="0" y="0" transform="matrix(1,0,0,1,5,16.75)"><tspan class="quote">“</tspan><tspan> for </tspan><tspan class="quote">”</tspan></text></g></g><g class="match-fragment" transform="matrix(1,0,0,1,48.6719,20.9844)"><path d="M10,11.765625q-10,0 -10,10v1.765625q0,10 10,10h82.875q10,0 10,-10v-1.765625q0,-10 -10,-10"></path><g class="any-character" transform="matrix(1,0,0,1,10,0)"><g class="label"><rect width="82.875" height="23.53125"></rect><text x="0" y="0" transform="matrix(1,0,0,1,5,16.7656)"><tspan>any character</tspan></text></g></g></g><g class="match-fragment subexp" transform="matrix(1,0,0,1,161.5469,0)"><rect rx="3" ry="3" class="subexp-box" transform="matrix(1,0,0,1,0,11)" width="82.84375" height="43.5"></rect><text x="0" y="0" class="subexp-label" transform="matrix(1,0,0,1,0,11)"><tspan>positive lookahead</tspan></text><g class="regexp match match-fragment literal" transform="matrix(1,0,0,1,29.0859,21)"><g class="label"><rect width="24.671875" height="23.5" rx="3" ry="3"></rect><text x="0" y="0" transform="matrix(1,0,0,1,5,16.75)"><tspan class="quote">“</tspan><tspan>\]</tspan><tspan class="quote">”</tspan></text></g></g></g></g></g></g><path d="M10,84.82037775878906H0M345.75006103515625,84.82037775878906H355.75006103515625"></path><circle cx="0" cy="84.82037775878906" r="5"></circle><circle cx="355.75006103515625" cy="84.82037775878906" r="5"></circle></g></svg>
        