
          <svg xmlns="http://www.w3.org/2000/svg" xmlns:cc="http://creativecommons.org/ns#" xmlns:rdf="http://www.w3.org/1999/02/22-rdf-syntax-ns#" version="1.1" width="185.625" height="125">
            <defs>
              <style type="text/css">svg {
          background-color: #fff; }
        
        .root text,
        .root tspan {
          font: 12px Arial; }
        
        .root path {
          fill-opacity: 0;
          stroke-width: 2px;
          stroke: #000; }
        
        .root circle {
          fill: #6b6659;
          stroke-width: 2px;
          stroke: #000; }
        
        .anchor text, .any-character text {
          fill: #fff; }
        
        .anchor rect, .any-character rect {
          fill: #6b6659; }
        
        .escape text, .charset-escape text, .literal text {
          fill: #000; }
        
        .escape rect, .charset-escape rect {
          fill: #bada55; }
        
        .literal rect {
          fill: #dae9e5; }
        
        .charset .charset-box {
          fill: #cbcbba; }
        
        .subexp .subexp-label tspan,
        .charset .charset-label tspan,
        .match-fragment .repeat-label tspan {
          font-size: 10px; }
        
        .repeat-label {
          cursor: help; }
        
        .subexp .subexp-label tspan,
        .charset .charset-label tspan {
          dominant-baseline: text-after-edge; }
        
        .subexp .subexp-box {
          stroke: #908c83;
          stroke-dasharray: 6,2;
          stroke-width: 2px;
          fill-opacity: 0; }
        
        .quote {
          fill: #908c83; }
        </style>
            </defs>
            <metadata>
              <rdf:rdf>
                <cc:license rdf:about="http://creativecommons.org/licenses/by/3.0/">
                  <cc:permits rdf:resource="http://creativecommons.org/ns#Reproduction"></cc:permits>
                  <cc:permits rdf:resource="http://creativecommons.org/ns#Distribution"></cc:permits>
                  <cc:requires rdf:resource="http://creativecommons.org/ns#Notice"></cc:requires>
                  <cc:requires rdf:resource="http://creativecommons.org/ns#Attribution"></cc:requires>
                  <cc:permits rdf:resource="http://creativecommons.org/ns#DerivativeWorks"></cc:permits>
                </cc:license>
              </rdf:rdf>
            </metadata>
          <desc>Created with Snap</desc><g class="root" transform="matrix(1,0,0,1,15,9.8906)"><g class="regexp match match-fragment subexp" transform="matrix(1,0,0,1,10,0)"><rect rx="3" ry="3" class="subexp-box" transform="matrix(1,0,0,1,0,11.1094)" width="135.625" height="94"></rect><text x="0" y="0" class="subexp-label" transform="matrix(1,0,0,1,0,11.1094)"><tspan>group #1</tspan></text><g class="regexp match" transform="matrix(1,0,0,1,10,21.1094)"><path d="M37.8125,42.5H62.8125"></path><g class="match-fragment charset" transform="matrix(1,0,0,1,0,0)"><rect rx="3" ry="3" class="charset-box" transform="matrix(1,0,0,1,0,11)" width="37.8125" height="63"></rect><text x="0" y="0" class="charset-label" transform="matrix(1,0,0,1,0,11)"><tspan>None of:</tspan></text><g transform="matrix(1,0,0,1,7.7734,16)"><g class="literal" transform="matrix(1,0,0,1,0,0)"><g class="label"><rect width="22.265625" height="24" rx="3" ry="3"></rect><text x="0" y="0" transform="matrix(1,0,0,1,5,17)"><tspan class="quote">“</tspan><tspan>"</tspan><tspan class="quote">”</tspan></text></g></g><g class="literal" transform="matrix(1,0,0,1,0.9844,29)"><g class="label"><rect width="20.296875" height="24" rx="3" ry="3"></rect><text x="0" y="0" transform="matrix(1,0,0,1,5,17)"><tspan class="quote">“</tspan><tspan>'</tspan><tspan class="quote">”</tspan></text></g></g></g></g><g class="match-fragment" transform="matrix(1,0,0,1,47.8125,4.5)"><path d="M0,38q10,0 10,-10v-18q0,-10 10,-10h27.8125q10,0 10,10v18q0,10 10,10M15,38q-10,0 -10,10v7q0,10 10,10h37.8125q10,0 10,-10v-7q0,-10 -10,-10M62.8125,53l5,-5m-5,5l-5,-5"></path><g class="charset" transform="matrix(1,0,0,1,15,10)"><rect rx="3" ry="3" class="charset-box" transform="matrix(1,0,0,1,0,11)" width="37.8125" height="34"></rect><text x="0" y="0" class="charset-label" transform="matrix(1,0,0,1,0,11)"><tspan>None of:</tspan></text><g transform="matrix(1,0,0,1,8.2422,16)"><g class="literal" transform="matrix(1,0,0,1,0,0)"><g class="label"><rect width="21.328125" height="24" rx="3" ry="3"></rect><text x="0" y="0" transform="matrix(1,0,0,1,5,17)"><tspan class="quote">“</tspan><tspan>[</tspan><tspan class="quote">”</tspan></text></g></g></g></g></g></g></g><path d="M20,63.6094H0M120.625,63.6094H155.625"></path><circle cx="0" cy="63.6094" r="5"></circle><circle cx="155.625" cy="63.6094" r="5"></circle></g></svg>
        