
          <svg xmlns="http://www.w3.org/2000/svg" xmlns:cc="http://creativecommons.org/ns#" xmlns:rdf="http://www.w3.org/1999/02/22-rdf-syntax-ns#" version="1.1" width="186.04690551757812" height="292.5">
            <defs>
              <style type="text/css">svg {
          background-color: #fff; }
        
        .root text,
        .root tspan {
          font: 12px Arial; }
        
        .root path {
          fill-opacity: 0;
          stroke-width: 2px;
          stroke: #000; }
        
        .root circle {
          fill: #6b6659;
          stroke-width: 2px;
          stroke: #000; }
        
        .anchor text, .any-character text {
          fill: #fff; }
        
        .anchor rect, .any-character rect {
          fill: #6b6659; }
        
        .escape text, .charset-escape text, .literal text {
          fill: #000; }
        
        .escape rect, .charset-escape rect {
          fill: #bada55; }
        
        .literal rect {
          fill: #dae9e5; }
        
        .charset .charset-box {
          fill: #cbcbba; }
        
        .subexp .subexp-label tspan,
        .charset .charset-label tspan,
        .match-fragment .repeat-label tspan {
          font-size: 10px; }
        
        .repeat-label {
          cursor: help; }
        
        .subexp .subexp-label tspan,
        .charset .charset-label tspan {
          dominant-baseline: text-after-edge; }
        
        .subexp .subexp-box {
          stroke: #908c83;
          stroke-dasharray: 6,2;
          stroke-width: 2px;
          fill-opacity: 0; }
        
        .quote {
          fill: #908c83; }
        </style>
            </defs>
            <metadata>
              <rdf:rdf>
                <cc:license rdf:about="http://creativecommons.org/licenses/by/3.0/">
                  <cc:permits rdf:resource="http://creativecommons.org/ns#Reproduction"></cc:permits>
                  <cc:permits rdf:resource="http://creativecommons.org/ns#Distribution"></cc:permits>
                  <cc:requires rdf:resource="http://creativecommons.org/ns#Notice"></cc:requires>
                  <cc:requires rdf:resource="http://creativecommons.org/ns#Attribution"></cc:requires>
                  <cc:permits rdf:resource="http://creativecommons.org/ns#DerivativeWorks"></cc:permits>
                </cc:license>
              </rdf:rdf>
            </metadata>
          <desc>Created with Snap</desc><g class="root" transform="matrix(1,0,0,1,15,10)"><g class="regexp match match-fragment charset" transform="matrix(1,0,0,1,10,0)"><rect rx="3" ry="3" class="charset-box" transform="matrix(1,0,0,1,0,11)" width="136.0468978881836" height="261.5"></rect><text x="0" y="0" class="charset-label" transform="matrix(1,0,0,1,0,11)"><tspan>One of:</tspan></text><g transform="matrix(1,0,0,1,5,16)"><g class="charset-escape" transform="matrix(1,0,0,1,35.8359,0)"><g class="label"><rect width="54.375" height="23.5" rx="3" ry="3"></rect><text x="0" y="0" transform="matrix(1,0,0,1,5,16.75)"><tspan>U+200D</tspan></text></g></g><g class="charset-range" transform="matrix(1,0,0,1,0.6641,28.5)"><text x="0" y="0" transform="matrix(1,0,0,1,59.375,16)">-</text><g class="charset-escape" transform="matrix(1,0,0,1,0,0)"><g class="label"><rect width="54.375" height="23.5" rx="3" ry="3"></rect><text x="0" y="0" transform="matrix(1,0,0,1,5,16.75)"><tspan>U+D800</tspan></text></g></g><g class="charset-escape" transform="matrix(1,0,0,1,68.375,0)"><g class="label"><rect width="56.34375" height="23.5" rx="3" ry="3"></rect><text x="0" y="0" transform="matrix(1,0,0,1,5,16.75)"><tspan>U+DFFF</tspan></text></g></g></g><g class="charset-range" transform="matrix(1,0,0,1,3.3203,57)"><text x="0" y="0" transform="matrix(1,0,0,1,57.375,16)">-</text><g class="charset-escape" transform="matrix(1,0,0,1,0,0)"><g class="label"><rect width="52.375" height="23.5" rx="3" ry="3"></rect><text x="0" y="0" transform="matrix(1,0,0,1,5,16.75)"><tspan>U+0300</tspan></text></g></g><g class="charset-escape" transform="matrix(1,0,0,1,66.375,0)"><g class="label"><rect width="53.03125" height="23.5" rx="3" ry="3"></rect><text x="0" y="0" transform="matrix(1,0,0,1,5,16.75)"><tspan>U+036F</tspan></text></g></g></g><g class="charset-range" transform="matrix(1,0,0,1,1.3359,85.5)"><text x="0" y="0" transform="matrix(1,0,0,1,59.3594,16)">-</text><g class="charset-escape" transform="matrix(1,0,0,1,0,0)"><g class="label"><rect width="54.359375" height="23.5" rx="3" ry="3"></rect><text x="0" y="0" transform="matrix(1,0,0,1,5,16.75)"><tspan>U+FE20</tspan></text></g></g><g class="charset-escape" transform="matrix(1,0,0,1,68.3594,0)"><g class="label"><rect width="55.015625" height="23.5" rx="3" ry="3"></rect><text x="0" y="0" transform="matrix(1,0,0,1,5,16.75)"><tspan>U+FE2F</tspan></text></g></g></g><g class="charset-range" transform="matrix(1,0,0,1,1.9922,114)"><text x="0" y="0" transform="matrix(1,0,0,1,59.375,16)">-</text><g class="charset-escape" transform="matrix(1,0,0,1,0,0)"><g class="label"><rect width="54.375" height="23.5" rx="3" ry="3"></rect><text x="0" y="0" transform="matrix(1,0,0,1,5,16.75)"><tspan>U+20D0</tspan></text></g></g><g class="charset-escape" transform="matrix(1,0,0,1,68.375,0)"><g class="label"><rect width="53.6875" height="23.5" rx="3" ry="3"></rect><text x="0" y="0" transform="matrix(1,0,0,1,5,16.75)"><tspan>U+20FF</tspan></text></g></g></g><g class="charset-range" transform="matrix(1,0,0,1,1,142.5)"><text x="0" y="0" transform="matrix(1,0,0,1,60.0313,16)">-</text><g class="charset-escape" transform="matrix(1,0,0,1,0,0)"><g class="label"><rect width="55.03125" height="23.5" rx="3" ry="3"></rect><text x="0" y="0" transform="matrix(1,0,0,1,5,16.75)"><tspan>U+1AB0</tspan></text></g></g><g class="charset-escape" transform="matrix(1,0,0,1,69.0313,0)"><g class="label"><rect width="55.015625" height="23.5" rx="3" ry="3"></rect><text x="0" y="0" transform="matrix(1,0,0,1,5,16.75)"><tspan>U+1AFF</tspan></text></g></g></g><g class="charset-range" transform="matrix(1,0,0,1,0,171)"><text x="0" y="0" transform="matrix(1,0,0,1,61.3594,16)">-</text><g class="charset-escape" transform="matrix(1,0,0,1,0,0)"><g class="label"><rect width="56.359375" height="23.5" rx="3" ry="3"></rect><text x="0" y="0" transform="matrix(1,0,0,1,5,16.75)"><tspan>U+1DC0</tspan></text></g></g><g class="charset-escape" transform="matrix(1,0,0,1,70.3594,0)"><g class="label"><rect width="55.6875" height="23.5" rx="3" ry="3"></rect><text x="0" y="0" transform="matrix(1,0,0,1,5,16.75)"><tspan>U+1DFF</tspan></text></g></g></g><g class="charset-escape" transform="matrix(1,0,0,1,35.1797,199.5)"><g class="label"><rect width="55.6875" height="23.5" rx="3" ry="3"></rect><text x="0" y="0" transform="matrix(1,0,0,1,5,16.75)"><tspan>U+FE0E</tspan></text></g></g><g class="charset-escape" transform="matrix(1,0,0,1,35.5156,228)"><g class="label"><rect width="55.015625" height="23.5" rx="3" ry="3"></rect><text x="0" y="0" transform="matrix(1,0,0,1,5,16.75)"><tspan>U+FE0F</tspan></text></g></g></g></g><path d="M10,141.75H0M146.04690551757812,141.75H156.04690551757812"></path><circle cx="0" cy="141.75" r="5"></circle><circle cx="156.04690551757812" cy="141.75" r="5"></circle></g></svg>
        