
          <svg xmlns="http://www.w3.org/2000/svg" xmlns:cc="http://creativecommons.org/ns#" xmlns:rdf="http://www.w3.org/1999/02/22-rdf-syntax-ns#" version="1.1" width="709.4375" height="261.0859375">
            <defs>
              <style type="text/css">svg {
          background-color: #fff; }
        
        .root text,
        .root tspan {
          font: 12px Arial; }
        
        .root path {
          fill-opacity: 0;
          stroke-width: 2px;
          stroke: #000; }
        
        .root circle {
          fill: #6b6659;
          stroke-width: 2px;
          stroke: #000; }
        
        .anchor text, .any-character text {
          fill: #fff; }
        
        .anchor rect, .any-character rect {
          fill: #6b6659; }
        
        .escape text, .charset-escape text, .literal text {
          fill: #000; }
        
        .escape rect, .charset-escape rect {
          fill: #bada55; }
        
        .literal rect {
          fill: #dae9e5; }
        
        .charset .charset-box {
          fill: #cbcbba; }
        
        .subexp .subexp-label tspan,
        .charset .charset-label tspan,
        .match-fragment .repeat-label tspan {
          font-size: 10px; }
        
        .repeat-label {
          cursor: help; }
        
        .subexp .subexp-label tspan,
        .charset .charset-label tspan {
          dominant-baseline: text-after-edge; }
        
        .subexp .subexp-box {
          stroke: #908c83;
          stroke-dasharray: 6,2;
          stroke-width: 2px;
          fill-opacity: 0; }
        
        .quote {
          fill: #908c83; }
        </style>
            </defs>
            <metadata>
              <rdf:rdf>
                <cc:license rdf:about="http://creativecommons.org/licenses/by/3.0/">
                  <cc:permits rdf:resource="http://creativecommons.org/ns#Reproduction"></cc:permits>
                  <cc:permits rdf:resource="http://creativecommons.org/ns#Distribution"></cc:permits>
                  <cc:requires rdf:resource="http://creativecommons.org/ns#Notice"></cc:requires>
                  <cc:requires rdf:resource="http://creativecommons.org/ns#Attribution"></cc:requires>
                  <cc:permits rdf:resource="http://creativecommons.org/ns#DerivativeWorks"></cc:permits>
                </cc:license>
              </rdf:rdf>
            </metadata>
          <desc>Created with Snap</desc><g class="root" transform="matrix(1,0,0,1,15,10)"><g class="regexp" transform="matrix(1,0,0,1,10,0)"><path d="M10,21.75q0,-10 10,-10M649.4375,21.75q0,-10 -10,-10M0,120.54296875c10,0 10,14.250031250000006 20,14.250031250000006M659.4375,120.54296875c-10,0 -10,14.250031250000006 -20,14.250031250000006M0,120.54296875q10,0 10,-10V21.75M659.4375,120.54296875q-10,0 -10,-10V21.75"></path><g transform="matrix(1,0,0,1,20,0)" class="regexp-matches"><path d="M0,11.75h299.0547M320.382825,11.75H619.4375M0,134.793h0M619.437525,134.793H619.4375"></path><g class="match match-fragment literal" transform="matrix(1,0,0,1,299.0547,0)"><g class="label"><rect width="21.328125" height="23.5" rx="3" ry="3"></rect><text x="0" y="0" transform="matrix(1,0,0,1,5,16.75)"><tspan class="quote">“</tspan><tspan>.</tspan><tspan class="quote">”</tspan></text></g></g><g class="match" transform="matrix(1,0,0,1,0,28.5)"><path d="M21.328125,106.293H31.3281M588.10935,106.29296875H598.1094"></path><g class="match-fragment literal" transform="matrix(1,0,0,1,0,94.543)"><g class="label"><rect width="21.328125" height="23.5" rx="3" ry="3"></rect><text x="0" y="0" transform="matrix(1,0,0,1,5,16.75)"><tspan class="quote">“</tspan><tspan>[</tspan><tspan class="quote">”</tspan></text></g></g><g class="match-fragment subexp regexp" transform="matrix(1,0,0,1,31.3281,0)"><path d="M10,62q0,-10 10,-10M546.78125,62q0,-10 -10,-10M10,151.1094q0,10 10,10M546.78125,151.1094q0,10 -10,10M0,106.29296875q10,0 10,-10V62M556.78125,106.29296875q-10,0 -10,-10V62M0,106.29296875q10,0 10,10V151.1094M556.78125,106.29296875q-10,0 -10,10V151.1094"></path><g transform="matrix(1,0,0,1,20,0)" class="regexp-matches"><path d="M0,52h239.4844M277.2969,52H516.78125M0,161.1094h10M516.781225,161.1094H516.78125"></path><g class="match match-fragment" transform="matrix(1,0,0,1,224.4844,0)"><path d="M0,52q10,0 10,-10v-32q0,-10 10,-10h27.8125q10,0 10,10v32q0,10 10,10M15,52q-10,0 -10,10v21q0,10 10,10h37.8125q10,0 10,-10v-21q0,-10 -10,-10M62.8125,67l5,-5m-5,5l-5,-5"></path><g class="charset" transform="matrix(1,0,0,1,15,10)"><rect rx="3" ry="3" class="charset-box" transform="matrix(1,0,0,1,0,11)" width="37.8125" height="62"></rect><text x="0" y="0" class="charset-label" transform="matrix(1,0,0,1,0,11)"><tspan>None of:</tspan></text><g transform="matrix(1,0,0,1,8.2422,16)"><g class="literal" transform="matrix(1,0,0,1,0,0)"><g class="label"><rect width="21.328125" height="23.5" rx="3" ry="3"></rect><text x="0" y="0" transform="matrix(1,0,0,1,5,16.75)"><tspan class="quote">“</tspan><tspan>[</tspan><tspan class="quote">”</tspan></text></g></g><g class="literal" transform="matrix(1,0,0,1,0,28.5)"><g class="label"><rect width="21.328125" height="23.5" rx="3" ry="3"></rect><text x="0" y="0" transform="matrix(1,0,0,1,5,16.75)"><tspan class="quote">“</tspan><tspan>]</tspan><tspan class="quote">”</tspan></text></g></g></g></g></g><g class="match" transform="matrix(1,0,0,1,0,98)"><path d="M42.8125,63.1094H77.8125M338.7030944824219,63.109373739624026H363.7031"></path><g class="match-fragment subexp" transform="matrix(1,0,0,1,0,0)"><rect rx="3" ry="3" class="subexp-box" transform="matrix(1,0,0,1,0,11.1094)" width="52.8125" height="93"></rect><text x="0" y="0" class="subexp-label" transform="matrix(1,0,0,1,0,11.1094)"><tspan>group #1</tspan></text><g class="regexp match match-fragment charset" transform="matrix(1,0,0,1,10,21.1094)"><rect rx="3" ry="3" class="charset-box" transform="matrix(1,0,0,1,0,11)" width="32.8125" height="62"></rect><text x="0" y="0" class="charset-label" transform="matrix(1,0,0,1,0,11)"><tspan>One of:</tspan></text><g transform="matrix(1,0,0,1,5.2734,16)"><g class="literal" transform="matrix(1,0,0,1,0,0)"><g class="label"><rect width="22.265625" height="23.5" rx="3" ry="3"></rect><text x="0" y="0" transform="matrix(1,0,0,1,5,16.75)"><tspan class="quote">“</tspan><tspan>"</tspan><tspan class="quote">”</tspan></text></g></g><g class="literal" transform="matrix(1,0,0,1,0.9844,28.5)"><g class="label"><rect width="20.296875" height="23.5" rx="3" ry="3"></rect><text x="0" y="0" transform="matrix(1,0,0,1,5,16.75)"><tspan class="quote">“</tspan><tspan>'</tspan><tspan class="quote">”</tspan></text></g></g></g></g></g><g class="match-fragment" transform="matrix(1,0,0,1,62.8125,11.5234)"><path d="M0,51.58597373962402q10,0 10,-10v-31.476573944091797q0,-10 10,-10h250.89059448242188q10,0 10,10v31.476573944091797q0,10 10,10M10,36.58597373962402l5,5m-5,-5l-5,5M15,51.58597373962402q-10,0 -10,10v31.476573944091797q0,10 10,10h260.8905944824219q10,0 10,-10v-31.476573944091797q0,-10 -10,-10"></path><g class="subexp regexp" transform="matrix(1,0,0,1,15,10)"><path d="M0,41.58597373962402c10,0 10,-8.710948739624023 20,-8.710948739624023M260.8905944824219,41.58597373962402c-10,0 -10,-8.710948739624023 -20,-8.710948739624023M10,61.296899999999994q0,10 10,10M250.89059448242188,61.296899999999994q0,10 -10,10M0,41.58597373962402q10,0 10,10V61.296899999999994M260.8905944824219,41.58597373962402q-10,0 -10,10V61.296899999999994"></path><g transform="matrix(1,0,0,1,20,0)" class="regexp-matches"><path d="M0,32.875025h10M220.8906,32.875025H220.89059448242188M0,71.2969h53.3437M167.54680000000002,71.2969H220.89059448242188"></path><g class="match" transform="matrix(1,0,0,1,0,0)"><path d="M163.078125,32.875025H183.0781"></path><g class="match-fragment subexp" transform="matrix(1,0,0,1,0,0)"><rect rx="3" ry="3" class="subexp-box" transform="matrix(1,0,0,1,0,11.1094)" width="173.078125" height="43.53125"></rect><text x="0" y="0" class="subexp-label" transform="matrix(1,0,0,1,0,11.1094)"><tspan>negative lookahead</tspan></text><g class="regexp match match-fragment escape" transform="matrix(1,0,0,1,10,21.1094)"><g class="label"><rect width="153.078125" height="23.53125" rx="3" ry="3"></rect><text x="0" y="0" transform="matrix(1,0,0,1,5,16.7656)"><tspan>Back reference (group = 1)</tspan></text></g></g></g><g class="match-fragment charset" transform="matrix(1,0,0,1,183.0781,5.125)"><rect rx="3" ry="3" class="charset-box" transform="matrix(1,0,0,1,0,11)" width="37.8125" height="33.5"></rect><text x="0" y="0" class="charset-label" transform="matrix(1,0,0,1,0,11)"><tspan>None of:</tspan></text><g transform="matrix(1,0,0,1,8.2422,16)"><g class="literal" transform="matrix(1,0,0,1,0,0)"><g class="label"><rect width="21.328125" height="23.5" rx="3" ry="3"></rect><text x="0" y="0" transform="matrix(1,0,0,1,5,16.75)"><tspan class="quote">“</tspan><tspan>\</tspan><tspan class="quote">”</tspan></text></g></g></g></g></g><g class="match" transform="matrix(1,0,0,1,53.3437,59.5313)"><path d="M21.328125,11.7656H31.3281"></path><g class="match-fragment literal" transform="matrix(1,0,0,1,0,0.0156)"><g class="label"><rect width="21.328125" height="23.5" rx="3" ry="3"></rect><text x="0" y="0" transform="matrix(1,0,0,1,5,16.75)"><tspan class="quote">“</tspan><tspan>\</tspan><tspan class="quote">”</tspan></text></g></g><g class="match-fragment any-character" transform="matrix(1,0,0,1,31.3281,0)"><g class="label"><rect width="82.875" height="23.53125"></rect><text x="0" y="0" transform="matrix(1,0,0,1,5,16.7656)"><tspan>any character</tspan></text></g></g></g></g></g></g><g class="match-fragment escape" transform="matrix(1,0,0,1,363.7031,51.3438)"><g class="label"><rect width="153.078125" height="23.53125" rx="3" ry="3"></rect><text x="0" y="0" transform="matrix(1,0,0,1,5,16.7656)"><tspan>Back reference (group = 1)</tspan></text></g></g></g></g></g><g class="match-fragment literal" transform="matrix(1,0,0,1,598.1094,94.543)"><g class="label"><rect width="21.328125" height="23.5" rx="3" ry="3"></rect><text x="0" y="0" transform="matrix(1,0,0,1,5,16.75)"><tspan class="quote">“</tspan><tspan>]</tspan><tspan class="quote">”</tspan></text></g></g></g></g></g><path d="M10,120.54296875H0M669.4375,120.54296875H679.4375"></path><circle cx="0" cy="120.54296875" r="5"></circle><circle cx="679.4375" cy="120.54296875" r="5"></circle></g></svg>
        