
          <svg xmlns="http://www.w3.org/2000/svg" xmlns:cc="http://creativecommons.org/ns#" xmlns:rdf="http://www.w3.org/1999/02/22-rdf-syntax-ns#" version="1.1" width="512.3750610351562" height="63.53125">
            <defs>
              <style type="text/css">svg {
          background-color: #fff; }
        
        .root text,
        .root tspan {
          font: 12px Arial; }
        
        .root path {
          fill-opacity: 0;
          stroke-width: 2px;
          stroke: #000; }
        
        .root circle {
          fill: #6b6659;
          stroke-width: 2px;
          stroke: #000; }
        
        .anchor text, .any-character text {
          fill: #fff; }
        
        .anchor rect, .any-character rect {
          fill: #6b6659; }
        
        .escape text, .charset-escape text, .literal text {
          fill: #000; }
        
        .escape rect, .charset-escape rect {
          fill: #bada55; }
        
        .literal rect {
          fill: #dae9e5; }
        
        .charset .charset-box {
          fill: #cbcbba; }
        
        .subexp .subexp-label tspan,
        .charset .charset-label tspan,
        .match-fragment .repeat-label tspan {
          font-size: 10px; }
        
        .repeat-label {
          cursor: help; }
        
        .subexp .subexp-label tspan,
        .charset .charset-label tspan {
          dominant-baseline: text-after-edge; }
        
        .subexp .subexp-box {
          stroke: #908c83;
          stroke-dasharray: 6,2;
          stroke-width: 2px;
          fill-opacity: 0; }
        
        .quote {
          fill: #908c83; }
        </style>
            </defs>
            <metadata>
              <rdf:rdf>
                <cc:license rdf:about="http://creativecommons.org/licenses/by/3.0/">
                  <cc:permits rdf:resource="http://creativecommons.org/ns#Reproduction"></cc:permits>
                  <cc:permits rdf:resource="http://creativecommons.org/ns#Distribution"></cc:permits>
                  <cc:requires rdf:resource="http://creativecommons.org/ns#Notice"></cc:requires>
                  <cc:requires rdf:resource="http://creativecommons.org/ns#Attribution"></cc:requires>
                  <cc:permits rdf:resource="http://creativecommons.org/ns#DerivativeWorks"></cc:permits>
                </cc:license>
              </rdf:rdf>
            </metadata>
          <desc>Created with Snap</desc><g class="root" transform="matrix(1,0,0,1,15,10)"><g class="regexp match" transform="matrix(1,0,0,1,10,0)"><path d="M70.703125,21.7656H80.7031M140.73435,21.7656H165.7344M248.6094,21.765625H273.6094M385.656275,21.765625H395.6563"></path><g class="match-fragment" transform="matrix(1,0,0,1,0,10.0156)"><g class="label anchor"><rect width="70.703125" height="23.5"></rect><text x="0" y="0" transform="matrix(1,0,0,1,5,16.75)"><tspan>Start of line</tspan></text></g></g><g class="match-fragment literal" transform="matrix(1,0,0,1,80.7031,10.0156)"><g class="label"><rect width="60.03125" height="23.5" rx="3" ry="3"></rect><text x="0" y="0" transform="matrix(1,0,0,1,5,16.75)"><tspan class="quote">“</tspan><tspan>function</tspan><tspan class="quote">”</tspan></text></g></g><g class="match-fragment" transform="matrix(1,0,0,1,150.7344,0)"><path d="M0,21.765625q10,0 10,-10v-1.765625q0,-10 10,-10h72.875q10,0 10,10v1.765625q0,10 10,10M10,6.765625l5,5m-5,-5l-5,5M15,21.765625q-10,0 -10,10v1.765625q0,10 10,10h82.875q10,0 10,-10v-1.765625q0,-10 -10,-10"></path><g class="any-character" transform="matrix(1,0,0,1,15,10)"><g class="label"><rect width="82.875" height="23.53125"></rect><text x="0" y="0" transform="matrix(1,0,0,1,5,16.7656)"><tspan>any character</tspan></text></g></g></g><g class="match-fragment literal" transform="matrix(1,0,0,1,273.6094,10)"><g class="label"><rect width="112.046875" height="23.53125" rx="3" ry="3"></rect><text x="0" y="0" transform="matrix(1,0,0,1,5,16.7656)"><tspan class="quote">“</tspan><tspan>() { [native code] }</tspan><tspan class="quote">”</tspan></text></g></g><g class="match-fragment" transform="matrix(1,0,0,1,395.6563,10.0156)"><g class="label anchor"><rect width="66.71875" height="23.5"></rect><text x="0" y="0" transform="matrix(1,0,0,1,5,16.75)"><tspan>End of line</tspan></text></g></g></g><path d="M10,21.7656H0M472.37505,21.7656H482.37506103515625"></path><circle cx="0" cy="21.7656" r="5"></circle><circle cx="482.37506103515625" cy="21.7656" r="5"></circle></g></svg>
        