
          <svg xmlns="http://www.w3.org/2000/svg" xmlns:cc="http://creativecommons.org/ns#" xmlns:rdf="http://www.w3.org/1999/02/22-rdf-syntax-ns#" version="1.1" width="282.71875" height="133">
            <defs>
              <style type="text/css">svg {
          background-color: #fff; }
        
        .root text,
        .root tspan {
          font: 12px Arial; }
        
        .root path {
          fill-opacity: 0;
          stroke-width: 2px;
          stroke: #000; }
        
        .root circle {
          fill: #6b6659;
          stroke-width: 2px;
          stroke: #000; }
        
        .anchor text, .any-character text {
          fill: #fff; }
        
        .anchor rect, .any-character rect {
          fill: #6b6659; }
        
        .escape text, .charset-escape text, .literal text {
          fill: #000; }
        
        .escape rect, .charset-escape rect {
          fill: #bada55; }
        
        .literal rect {
          fill: #dae9e5; }
        
        .charset .charset-box {
          fill: #cbcbba; }
        
        .subexp .subexp-label tspan,
        .charset .charset-label tspan,
        .match-fragment .repeat-label tspan {
          font-size: 10px; }
        
        .repeat-label {
          cursor: help; }
        
        .subexp .subexp-label tspan,
        .charset .charset-label tspan {
          dominant-baseline: text-after-edge; }
        
        .subexp .subexp-box {
          stroke: #908c83;
          stroke-dasharray: 6,2;
          stroke-width: 2px;
          fill-opacity: 0; }
        
        .quote {
          fill: #908c83; }
        </style>
            </defs>
            <metadata>
              <rdf:rdf>
                <cc:license rdf:about="http://creativecommons.org/licenses/by/3.0/">
                  <cc:permits rdf:resource="http://creativecommons.org/ns#Reproduction"></cc:permits>
                  <cc:permits rdf:resource="http://creativecommons.org/ns#Distribution"></cc:permits>
                  <cc:requires rdf:resource="http://creativecommons.org/ns#Notice"></cc:requires>
                  <cc:requires rdf:resource="http://creativecommons.org/ns#Attribution"></cc:requires>
                  <cc:permits rdf:resource="http://creativecommons.org/ns#DerivativeWorks"></cc:permits>
                </cc:license>
              </rdf:rdf>
            </metadata>
          <desc>Created with Snap</desc><g class="root" transform="matrix(1,0,0,1,15,10)"><g class="regexp match" transform="matrix(1,0,0,1,10,0)"><path d="M21.328125,62H41.3281"></path><g class="match-fragment literal" transform="matrix(1,0,0,1,0,50)"><g class="label"><rect width="21.328125" height="24" rx="3" ry="3"></rect><text x="0" y="0" transform="matrix(1,0,0,1,5,17)"><tspan class="quote">“</tspan><tspan> </tspan><tspan class="quote">”</tspan></text></g></g><g class="match-fragment subexp" transform="matrix(1,0,0,1,31.3281,0)"><rect rx="3" ry="3" class="subexp-box" transform="matrix(1,0,0,1,0,11)" width="201.39065551757812" height="102"></rect><text x="0" y="0" class="subexp-label" transform="matrix(1,0,0,1,0,11)"><tspan>positive lookahead</tspan></text><g class="regexp match" transform="matrix(1,0,0,1,10,21)"><path d="M64.671875,41H74.6719"></path><g class="match-fragment subexp regexp" transform="matrix(1,0,0,1,0,14.5)"><path d="M0,26.5c10,0 10,-14.5 20,-14.5M64.671875,26.5c-10,0 -10,-14.5 -20,-14.5M0,26.5c10,0 10,14.5 20,14.5M64.671875,26.5c-10,0 -10,14.5 -20,14.5"></path><g transform="matrix(1,0,0,1,20,0)" class="regexp-matches"><path d="M0,12h1.6719M23.000025,12H24.671875M0,41h0M24.671875,41H24.671875"></path><g class="match match-fragment literal" transform="matrix(1,0,0,1,1.6719,0)"><g class="label"><rect width="21.328125" height="24" rx="3" ry="3"></rect><text x="0" y="0" transform="matrix(1,0,0,1,5,17)"><tspan class="quote">“</tspan><tspan>.</tspan><tspan class="quote">”</tspan></text></g></g><g class="match match-fragment literal" transform="matrix(1,0,0,1,0,29)"><g class="label"><rect width="24.671875" height="24" rx="3" ry="3"></rect><text x="0" y="0" transform="matrix(1,0,0,1,5,17)"><tspan class="quote">“</tspan><tspan>[]</tspan><tspan class="quote">”</tspan></text></g></g></g></g><g class="match-fragment subexp regexp" transform="matrix(1,0,0,1,74.6719,0)"><path d="M10,22q0,-10 10,-10M96.71875,22q0,-10 -10,-10M0,41c10,0 10,0 20,0M106.71875,41c-10,0 -10,0 -20,0M10,60q0,10 10,10M96.71875,60q0,10 -10,10M0,41q10,0 10,-10V22M106.71875,41q-10,0 -10,-10V22M0,41q10,0 10,10V60M106.71875,41q-10,0 -10,10V60"></path><g transform="matrix(1,0,0,1,20,0)" class="regexp-matches"><path d="M0,12h22.6953M44.023425,12H66.71875M0,41h21.0234M45.695274999999995,41H66.71875M0,70h0M66.71875,70H66.71875"></path><g class="match match-fragment literal" transform="matrix(1,0,0,1,22.6953,0)"><g class="label"><rect width="21.328125" height="24" rx="3" ry="3"></rect><text x="0" y="0" transform="matrix(1,0,0,1,5,17)"><tspan class="quote">“</tspan><tspan>.</tspan><tspan class="quote">”</tspan></text></g></g><g class="match match-fragment literal" transform="matrix(1,0,0,1,21.0234,29)"><g class="label"><rect width="24.671875" height="24" rx="3" ry="3"></rect><text x="0" y="0" transform="matrix(1,0,0,1,5,17)"><tspan class="quote">“</tspan><tspan>[]</tspan><tspan class="quote">”</tspan></text></g></g><g class="match match-fragment" transform="matrix(1,0,0,1,0,58)"><g class="label anchor"><rect width="66.71875" height="24"></rect><text x="0" y="0" transform="matrix(1,0,0,1,5,17)"><tspan>End of line</tspan></text></g></g></g></g></g></g></g><path d="M10,62H0M232.71875,62H252.71875"></path><circle cx="0" cy="62" r="5"></circle><circle cx="252.71875" cy="62" r="5"></circle></g></svg>
        